<?xml version="1.0" encoding="utf-8"?>
<!-- Generator: Adobe Illustrator 17.0.0, SVG Export Plug-In . SVG Version: 6.00 Build 0)  -->
<!DOCTYPE svg PUBLIC "-//W3C//DTD SVG 1.1//EN" "http://www.w3.org/Graphics/SVG/1.1/DTD/svg11.dtd">
<svg version="1.1" id="Layer_1" xmlns="http://www.w3.org/2000/svg" xmlns:xlink="http://www.w3.org/1999/xlink" x="0px" y="0px"
	 width="1400px" height="1400px" viewBox="0 0 1400 1400" enable-background="new 0 0 1400 1400" xml:space="preserve">
<linearGradient id="SVGID_1_" gradientUnits="userSpaceOnUse" x1="1400" y1="1400" x2="4.714070e-008" y2="-4.714116e-008">
	<stop  offset="0" style="stop-color:#030E52"/>
	<stop  offset="1" style="stop-color:#00A9FF"/>
</linearGradient>
<rect fill-rule="evenodd" clip-rule="evenodd" fill="url(#SVGID_1_)" width="1400" height="1400"/>
<g>
	<g>
		<linearGradient id="SVGID_2_" gradientUnits="userSpaceOnUse" x1="700" y1="1400" x2="700" y2="653.5128">
			<stop  offset="0" style="stop-color:#1D74CC"/>
			<stop  offset="1" style="stop-color:#30A9FF"/>
		</linearGradient>
		<path fill-rule="evenodd" clip-rule="evenodd" fill="url(#SVGID_2_)" d="M0,1242.5c50.6-4.3,103.2-5,160,1.5
			c334.8,38.3,363.6-391.8,193.5-515.7c-20.6-14.9-42.1-74.8,49.9-74.8c177.9,0,387.8,240.2,520.6,336.9
			c154.8,112.7,263.7,210.9,476.1,193V1400H0V1242.5z"/>
		<linearGradient id="SVGID_3_" gradientUnits="userSpaceOnUse" x1="700" y1="1400" x2="700" y2="958.2756">
			<stop  offset="0" style="stop-color:#066BB3"/>
			<stop  offset="1" style="stop-color:#066BB3;stop-opacity:0"/>
		</linearGradient>
		<path fill-rule="evenodd" clip-rule="evenodd" fill="url(#SVGID_3_)" d="M0,1274.5c90.1-7.7,110.7-33.9,239.5-4.4
			c65.1,14.9,127.4-37.4,174.3-99.1c44.9-59.1,71.5-181.2,122.9-172.4c32.6,5.7,76.5,21.6,120.1-35.4
			c39.3-51.4,284,312.8,743.3,250.3V1400H0V1274.5z"/>
	</g>
	<g>
		<path opacity="0.5" fill-rule="evenodd" clip-rule="evenodd" fill="#99FFFF" d="M439.2,803.7c40.2,116.2,48.2,247.1,28.5,248.3
			c-8.2,0.5-9.1-29.2-12.3-94.3c-4.1,47.8,4.4,73.1,2.8,112.8c-1.8,44.8-46.8,56.6-70.9,96.2c12.9-13.8,41.7-33.1,59.9-58.9
			c16-22.7,14.7-49.3,21.8-45.5c12.6,6.9-4.8,76.2-50.3,121.3c-59.1,58.6-73,88.4-211.8,116.6c-61.7,12.5-135.2,24.6-206.8,32.4
			v32.3c60.5,11.1,120.7,24,157.2,35.1h26.7c-113-22.2-168.4-48.6-132.1-59.4c21.5-6.4,80.1-26.4,176-32.4
			c100.5-6.3,124.2-8.2,197-118.7c57.8-87.7,138.2-109.2,118.2-63.7C486,1255.5,411.8,1374.1,226.3,1400h11.9
			c138.9-13.6,185.4-67.8,213.6-99.5c49.9-56.2,145.4-115,146.4-78.5c1.3,47.3-113.2,144.7-177.8,178H441
			c133.5-97.5,153.9-124.9,254.8-353.6c5.5,7.1,11.1,14.3,16.6,21.4c-51,110.7-85,239.7-218.7,332.3h7.7
			c95.1-56.8,123.4-141.9,147.5-162.1c56.1-47.1,95.7,44.9-83.5,162.1h9.5c55.2-24.7,120.7-89.4,129.5-158.1
			c7.3-57.9,25.4-80.3,58.4-119.3c42.1,14.7,0.1,83.7-17.8,150.5c-15,55.6-62.2,83.8-93.3,127h19.1
			c82.9-102.5,88.5-162.3,141.2-225.1c2.7,74-29,148.5-96.6,225.1c2.2,0,4.3,0,6.5,0c57.5-65.4,96.1-141.6,103.1-238.8
			c-2.8-6.1-5.5-12.2-8.3-18.3c-26.8,41.6-54.8,111.4-57.8,104.6c-4.5-10.4,45.6-93.7,18.1-153.5c-39.5,43-59.4,99.5-107.9,120.8
			c-37.1,16.3,38.3-110.3,62.8-169.6c-11.1-9.7-12.6-21-23.7-30.7c-46.2,64.8-46.5,183.9-148.2,195.9c-61.5,7.3-8-66.9-2.3-99.1
			c12-68,36.3-131.2,54.5-196.7c-6.3-4.5-12.6-8.9-18.9-13.4c-13.3,57.5-3.3,92.6-35,160.1c-18.3,39-84.9,65.3-66.4,24.8
			c37.7-82.2,28.8-151.6,43.3-227.4c-10.3-12.3-20.5-24.6-30.8-37c22.2,95.3,13,260.5-18.7,233.3c-17.8-15.4,15.7-94.6-32.9-254.6
			C448.3,801.6,443.8,802.6,439.2,803.7L439.2,803.7z M0,1311.9c70.4-6.3,135.6-17.8,168.4-40.4c31.1-21.4-30.8-35.2-56.3-31.4
			c25.8,1.7,71.7,8.3,35.5,26.2c-47.9,23.7-97,35.4-147.6,41.3V1311.9z"/>
		<path opacity="0.5" fill-rule="evenodd" clip-rule="evenodd" fill="#30D2FF" d="M471.5,849.5c49.1,72.9,45.4,183.7,6.6,241.4
			c-69.2,103.1-161,167.8-289.4,155.3c131.5,40.7,207.7-92.6,222.9-36.3c8.2,30.4-47.6,136.7-271.5,111.7
			c-34.6-3.8-90.8-2-140.2-2.8v16.6c32.1,7,67.1,15,104.5,24c55.8,13.4-14.4,13.8-104.5,17.6v18.2c61.7-8.1,111.8-18.5,178.1-20.8
			c81.9-2.8,209.3-39.6,230.8-17c15,15.7-10.5,31.5-21,42.6h41.5c-19-14.8-6.3-30.1,29.6-21.4c39,9.4,116.2-37.8,185.5-68.1
			c50.1-21.9,135.3-69.2,171.1-70c45.1-0.9,30.2,52.7-25.1,105.8c-17.1,16.4-57.3,29-88.4,53.7H749c29.7-45.7,81.2-72.9,86.4-94.8
			c8.3-34.6,27.7-83.8-8.4-80.1c-23.6,2.4-75.7,31.8-111.9,46c-113.9,44.8-245.5,107.7-276.2,93.1c-23.8-11.3-55-46.7-47.4-78.7
			c11.7-49.1,122.2-8.3,162.9-97.6c47.4-103.8,159.1,61.5,203.3-107c-6.6-5.6-12.4-10.9-18.6-16c-9.5,97.8-41.9,48.7-72.5,74.4
			c-14,11.8-35.5,2.6-10.7-32.3c8.6-12.1,14.2-44.4,17.8-82.7l-0.2-0.1c-67.3,169.5-76.5,29.5-105.5,3.1
			c-31.5-28.7-4.8-84.7-8.3-124.3C540.9,868.2,487.7,812.2,471.5,849.5L471.5,849.5z M0,1244c21-4.2,39.5-5.4,45.4-4.2
			c-16.8-3.2-31.8-3.5-45.4-1.7V1244z M71.6,1338.2c-9.7-4.6,43.6-23.3,94.1-1.5C194.4,1349.2,92.2,1348,71.6,1338.2L71.6,1338.2z
			 M140.3,1365.3c-38.5-12.4,146.7-35.6,172-26.9C353.6,1352.6,163.7,1372.8,140.3,1365.3L140.3,1365.3z M315.4,1327.9
			c-38.5-12.4,35.3-27.7,60.6-19C417.3,1323.1,338.9,1335.5,315.4,1327.9L315.4,1327.9z M579.6,1080.8c-7.3-12.4,10.9-9.4,11.7,4.8
			C591.5,1090.4,584,1088.3,579.6,1080.8L579.6,1080.8z M615.4,1124c-18.9,32,28.2,24.3,30.2-12.5
			C646.2,1099.1,626.8,1104.5,615.4,1124L615.4,1124z M577.6,1100.5c-5.4,23.1,0.9,52.7,10.8,44.4c8.4-7.1,17.4,7.8,19.1-24.8
			C608.1,1107.7,580.5,1087.9,577.6,1100.5L577.6,1100.5z M539.6,1050.7c-2.3,66.8-27.2,121.5-41.8,142c-24.8,34.8-3.3,44,10.7,32.3
			c32.6-27.4,57.8-24,64.6-150.3C575.6,1026.5,541.3,999.5,539.6,1050.7L539.6,1050.7z M516.9,1005.3
			c-20.7,78-64.1,140.1-92.1,184.1c-13,20.4-20.1,78.7,8.6,54.7C500,1188.2,524,1135,532,1060.8C539.6,989.2,520,993.5,516.9,1005.3
			L516.9,1005.3z"/>
		<linearGradient id="SVGID_4_" gradientUnits="userSpaceOnUse" x1="825.2205" y1="634.3623" x2="825.2205" y2="1400">
			<stop  offset="0" style="stop-color:#99FFFF"/>
			<stop  offset="1" style="stop-color:#99FFFF;stop-opacity:0"/>
		</linearGradient>
		<path fill-rule="evenodd" clip-rule="evenodd" fill="url(#SVGID_4_)" d="M686.7,1060.3c11.8,4.9,11.9,36.9,21.9,41.7
			c3.5,1.7,7.7-1.7,11.3,0c4.9,2.4,9.7,6.4,13,11.8c1.9,3.1-0.8,8.9,1.2,11.8c6.5,9.5,16.3-2,23.1,23.6c1.2,4.5,7.1,1.1,10.7,0.8
			c12.7-1,11.7,17.8,26.1,23.6c3.8,1.5-0.9,11.3,1.2,15.7c4.2,9,13.5,13.1,16.6,22.8c2.3,7.3,1.9,17.4-1.8,23.6
			c-5.7,9.6-26,10-23.7,18.9c1.6,6.1,9,5.1,13.1,8.7c16.6,14.8,2.7,27.1-1.8,38.5c-3.4,8.7-16.7,6.8-19,15c-1.1,4,3.4,6.4,3.6,11.8
			c0.2,8.6-5.9,16.9-11.9,20.5c-13.5,8-29.4,5.9-43.3,12.6c-5.7,2.7-8.2,15.3-14.2,15.3c-23.5-0.1-23.1,18.1-61,23
			c91.5,0,468.2,0,559.7,0c0-70.4-169.7-44.6-163.7-114.1c3.4-40.3,206.7,49.6,352.3,37.7V1311c-351.9-14.3-450.1-98-505.9-142.9
			c-4.4-3.5-2-14.1-5.9-18.1c-6.4-6.3-15.4-5.5-22.5-10.2c-8.8-5.9-23.4-12.4-24.9-21.3c-0.7-4.5,6.3-4.1,8.9-7.1
			c2.2-2.6,3.4-6.5,5.3-9.4c4.8-7.2,22.1-4.2,33.2-3.9c12.7,0.3,235.3,127.4,511.8,140.3v-7.1c-288.9-5.6-496-139.9-506.5-145
			c-15.5-7.6-30.1-18.1-45-27.5c-8.8-5.6-18.4-9.4-26.1-17.3c-3.7-3.8-7-10.4-6.5-16.5c0.3-4.1,5.2-4.9,8.3-5.5
			c5.7-1,11.8-2,17.2,0.8c11.5,6.1,14-2.3,1.2-8.3c-37.9-17.7-48.2-26.4-72.3-40.5c-9.6-5.6-17.8-14.7-27.3-20.5
			c-8.2-5-17.5-6.3-25.5-11.8c-2.3-1.6-1.8-7.2-4.2-8.6c-4.7-3-8.8-7.1-11.8-18.9c-1-3.7-6.3,0.5-8.9-1.6c-2.4-2-2.4-7.2-4.8-9.4
			c-4.2-4-9.9-4.9-14.2-8.6c-2.7-2.3-5-5.7-6.5-9.4c-2.3-5.6-6.8-12.3-4.7-18.1c1.7-4.8,8-3.6,11.9-2.4
			c15.8,5.2,31.6,11.8,46.2,21.2c69.5,44.9,342.5,311.5,679.6,335.7v-11.8c-323.5-10.4-597-269.8-657-312
			c-21.2-14.9-38.8-37.7-59.9-52.9c-21.6-15.5-45.8-23.6-67.6-38.5c-3.1-2.2-3.1-9-5.9-11.8c-18.9-19.1-40.2-33.8-58.7-53.5
			c-6.8-7.2,1.1-13,7.7-10.2c39.2,16.6,79,30.7,116.4,54.1c2.8,1.7-1.6-9.2-4.4-10.8c-39.6-22-80.7-39.1-120.9-59
			c-4.2-2.1-8.2-5-12.5-7.1c-3.7-1.9-7.7-2.5-11.3-4.7c-3.6-2.3-6.5-6.2-10.1-8.6c-5.4-3.8-10.7-8.2-16.6-10.3
			c-6.5-2.2-13.6-0.1-20.1-2.3c-5.3-1.8-10.1-5.7-14.8-9.4c-8.3-6.5-15.5-15.8-24.3-21.2c-3.4-2.1-7.6,0.4-11.3-0.8
			c-3.8-1.2-6.8-5.5-10.7-6.3c-11.9-2.4-35.2-13.2-36.2-3.1c-1,10.6,21.4,3.9,21.7,9.6c0.4,8.6-52.8,2.4-80.1,5.6
			c-23.4,2.8-54.5,22.7-51.8,29.6c3.7,9.4,28.7-10.3,33.2,3.1c4,12.1-15.7,16.8-24.9,22c-9.3,5.4-31-3.9-29.6,9.4
			c1,9.9,47.8-9.5,52.1,0c2.3,5-1.6,14.7,2.4,17.3c5.7,3.8,14.6-9.3,19-3.1c4.5,6.4-8.3,21.1-14.2,29.9c-4.5,6.7-21.1,8.9-16.6,15.7
			c5.7,8.7,18.9-9.5,28.5-7.9c4.5,0.8,4.1,12.2,8.3,14.1c5.9,2.7,13.1-12.6,21.3-15.7c5.2-2,7.8-14.3,13-12.6
			c8.2,2.7,2.1,20.1,7.1,26.7c4.3,5.8,13.8,0.1,17.8,6.3c2.9,4.4-5.5,13.2-2.4,17.3c3.6,4.8,10.6-2.4,15.4,0c2.1,1,2.2,5.7,1.8,8.6
			c-0.6,4.2-6.3,7.3-4.7,11c1.8,4.4,9.8-8.1,17.2-7.9c5.7,0.2,10.4-9.4,16-7.9c3.1,0.9-1.9,10,0.6,12.6c2.6,2.6,6.5-4,9.5-2.3
			c4.1,2.2,5.3,10.4,9.5,12.6c3.1,1.7,4.2-3.1,10.1-2.3c2.9,0.4,2.4-8.7,5.3-9.4c2.6-0.7,6.6,2.7,6.5,6.3c-0.2,5.5-6.5,8-7.1,13.4
			c-0.6,4.8-7.7,2.6-7.1,6.3c0.8,4.9,8.7-0.9,11.8,2.4c2.8,2.9,0.2,10.5,3,13.4c2.8,2.9,7.3-0.6,10.7,0.8c3.3,1.3,8.1,2.6,8.9,7.1
			c1,5.7-2,11.9-4.8,16.5c-2.2,3.7-7.2,3.4-9.4,7.1c-2.6,4.1-7.3,11.7-4.2,14.9c3.5,3.7,6.2-7.5,12.5-6.3c6.8,1.4,10.8-14,17.8-14.2
			c5-0.1,11.7,6.7,11.2,13.4c-0.3,5.8-11.1,0-12.4,5.5c-2,8.4,11.4-0.6,21.9,9.4c3.8,3.7,9.1-8.6,14.2-0.8
			c8.2,12.5,33.8,1.1,36.2,12.6c0.9,4.4-6.2,4.3-9.5,5.5c-2.9,1-7.3-2.6-8.9,0.8c-2.5,5.3,7.3,8.7,11.8,11s10.2-1,14.2,2.4
			c2,1.6-1.3,6.8,0,9.4c1.5,2.9,4.5,3.9,7.1,4.7c4.8,1.6,10.6-1.2,14.8,2.4c2.4,2,2.4,7.6,1.2,11c-1.5,4.4-8.7,4.6-8.3,9.4
			c0.6,8,17.3,3.9,24.9,9.4c1.9,1.4-1.7,6.9,0,8.7c4.7,4.7,12,2.9,16.6,7.9c2.6,2.7-0.2,10,2.4,12.6c5.1,5-2.2,7.8-1.8,11.8
			c0.7,6.9,15.2,1.9,21.9,6.3c2,1.3,1.2,5.7,1.2,8.7C664.8,1062.1,679.3,1057.3,686.7,1060.3L686.7,1060.3z"/>
	</g>
	<g>
		<g>
			<path fill-rule="evenodd" clip-rule="evenodd" fill="#EDFFFF" d="M407.7,673.7c-27.8,2.9-116.1-50-122.7-29.1
				c-3.7,11.7,69.1,8.2,71.7,26.7c2.3,16.2-31.9-1.5-35.6,14.2c-3,13.2,30.8-7.5,30.8,6.3c0,15.1-20.4,13.6-30.8,19.7
				c-19.8,11.5-71.4,23.4-59.8,33c11.9,10,58-32.8,88.9-34.6c19.1-1.2,47,2.3,53.9,26c5.8,19.8-20.5,32.9-32.7,46.7
				c-12.3,13.9-44.9,22.5-40.2,35.9c5,14.2,38.1-37.2,64-45.6c15.2-5,24.5-1.9,26.1,5.5c1.7,8-7.9,19.3-4.4,21.2
				c5.6,3.2,10.4-13.5,13.5-20.4c15.5-35.2,46.1,9.9,44.9,27.5c-1.4,21.5-47.6,25.6-41,35.4c7.4,10.9,37.6-28,59.5-30.3
				c11.5-1.2,21.8,17.9,37.2,20.1c20.5,2.8,28.7-7.9,21.3-7.9c-32.2,0.3-45.1-14.9-65.2-29.9c-5.5-4.1-1.3-18.8-6.5-23.6
				c-11.9-11.1-29.3-8.7-40.9-20.4c-11.4-11.5-37.6-37.7-24.9-46.4c22.4-15.4,47.3,18.1,75.3,11.8c5.2-1.2,7-16.7-11.9-14.1
				c-11.8,1.6-23,0.7-34.4-3.7C430.8,692.4,421.2,672.2,407.7,673.7L407.7,673.7z"/>
			<path fill-rule="evenodd" clip-rule="evenodd" fill="#EDFFFF" d="M510.9,845.5c-15.3,1.6-63.9-27.5-67.5-16
				c-2.1,6.4,38,4.5,39.4,14.7c1.3,8.9-17.6-0.8-19.6,7.8c-1.7,7.3,17-4.1,17,3.5c0,8.3-11.2,7.5-17,10.8
				c-10.9,6.3-39.3,12.8-32.9,18.2c6.5,5.5,32-18,48.9-19c10.5-0.6,25.9,1.3,29.7,14.3c3.2,10.9-11.3,18.1-18,25.7
				c-6.8,7.7-24.7,12.4-22.1,19.8c2.7,7.8,21-20.5,35.2-25.1c8.4-2.7,13.5-1,14.4,3c0.9,4.4-4.4,10.6-2.4,11.7
				c3.1,1.7,5.7-7.4,7.4-11.3c8.5-19.4,25.3,5.5,24.7,15.2c-0.8,11.9-26.2,14.1-22.5,19.5c4.1,6,20.7-15.4,32.7-16.7
				c6.3-0.7,12,9.9,20.5,11c11.3,1.6,15.8-4.4,11.8-4.3c-17.7,0.1-24.9-8.3-35.9-16.5c-3-2.2-0.7-10.4-3.6-13
				c-6.6-6.1-16.2-4.8-22.5-11.3c-6.2-6.4-20.7-20.8-13.7-25.5c12.4-8.5,26.1,9.9,41.4,6.5c2.9-0.6,3.8-9.2-6.5-7.8
				c-6.5,0.9-12.6,0.4-18.9-2.1C523.6,855.8,518.3,844.7,510.9,845.5L510.9,845.5z"/>
			<path fill-rule="evenodd" clip-rule="evenodd" fill="#EDFFFF" d="M502.1,749.5c-15.3,1.6-63.9-27.5-67.5-16
				c-2,6.4,38,4.5,39.5,14.7c1.2,8.9-17.6-0.9-19.6,7.8c-1.7,7.3,17-4.1,17,3.5c0,8.3-11.2,7.5-17,10.8
				c-10.9,6.3-39.3,12.8-32.9,18.2c6.5,5.5,32-18.1,48.9-19.1c10.5-0.6,25.9,1.3,29.7,14.3c3.2,10.9-11.3,18.1-18,25.8
				c-6.8,7.6-24.7,12.4-22.1,19.7c2.7,7.8,21-20.4,35.2-25.1c8.3-2.7,13.5-1,14.3,3c0.9,4.4-4.4,10.6-2.4,11.7
				c3.1,1.7,5.7-7.4,7.4-11.3c8.5-19.4,25.3,5.5,24.7,15.2c-0.8,11.9-26.2,14.1-22.5,19.5c4.1,6,20.7-15.4,32.7-16.7
				c6.3-0.7,12,9.9,20.5,11c11.3,1.6,15.8-4.3,11.8-4.3c-17.7,0.2-24.8-8.2-35.9-16.5c-3-2.2-0.7-10.3-3.6-13
				c-6.6-6.1-16.1-4.8-22.5-11.3c-6.3-6.3-20.7-20.8-13.7-25.5c12.4-8.5,26.1,9.9,41.4,6.5c2.9-0.7,3.8-9.2-6.5-7.8
				c-6.5,0.9-12.7,0.4-18.9-2.1C514.8,759.8,509.5,748.8,502.1,749.5L502.1,749.5z"/>
			<path fill-rule="evenodd" clip-rule="evenodd" fill="#EDFFFF" d="M596.8,842.6c-15.3,1.6-63.9-27.5-67.5-16
				c-2,6.4,38,4.5,39.5,14.7c1.3,8.9-17.6-0.8-19.6,7.8c-1.7,7.2,17-4.1,17,3.5c0,8.3-11.2,7.5-17,10.8c-10.9,6.3-39.3,12.9-33,18.2
				c6.6,5.5,32-18,49-19.1c10.5-0.6,25.9,1.3,29.7,14.3c3.2,10.9-11.3,18.1-18,25.7c-6.8,7.7-24.7,12.4-22.1,19.7
				c2.8,7.8,21-20.4,35.2-25.1c8.4-2.7,13.5-1,14.3,3c0.9,4.4-4.3,10.6-2.4,11.7c3.1,1.7,5.7-7.4,7.4-11.2
				c8.5-19.4,25.4,5.5,24.7,15.2c-0.8,11.9-26.2,14.1-22.5,19.5c4.1,5.9,20.7-15.4,32.8-16.7c6.3-0.7,12,9.9,20.5,11.1
				c11.3,1.6,15.8-4.4,11.7-4.3c-17.7,0.2-24.8-8.2-35.9-16.4c-3-2.3-0.7-10.4-3.6-13c-6.5-6.1-16.1-4.8-22.5-11.2
				c-6.3-6.4-20.7-20.8-13.7-25.6c12.3-8.5,26,9.9,41.4,6.5c2.9-0.6,3.8-9.2-6.5-7.8c-6.5,0.9-12.7,0.4-18.9-2.1
				C609.5,852.9,604.2,841.8,596.8,842.6L596.8,842.6z"/>
			<path fill-rule="evenodd" clip-rule="evenodd" fill="#EDFFFF" d="M629.1,909.1c-15.3,1.6-63.9-27.5-67.5-16
				c-2,6.5,38.1,4.5,39.5,14.7c1.3,8.9-17.6-0.8-19.6,7.8c-1.7,7.3,17-4.1,17,3.5c0,8.3-11.2,7.5-17,10.8
				c-10.9,6.3-39.3,12.8-32.9,18.2c6.5,5.5,32-18,48.9-19c10.5-0.6,25.9,1.3,29.7,14.3c3.2,10.9-11.3,18.1-18,25.7
				c-6.8,7.7-24.7,12.4-22.1,19.8c2.7,7.8,21-20.5,35.2-25.1c8.4-2.7,13.5-1,14.3,3c0.9,4.4-4.3,10.6-2.4,11.7
				c3.1,1.7,5.7-7.4,7.4-11.3c8.5-19.4,25.4,5.5,24.7,15.2c-0.8,11.9-26.2,14.1-22.6,19.5c4.1,6,20.7-15.4,32.8-16.7
				c6.3-0.7,12,9.9,20.5,11c11.3,1.6,15.8-4.4,11.7-4.3c-17.7,0.2-24.8-8.2-35.9-16.4c-3-2.2-0.7-10.4-3.6-13
				c-6.5-6.1-16.1-4.8-22.5-11.3c-6.2-6.4-20.7-20.8-13.7-25.5c12.4-8.5,26,9.9,41.4,6.5c2.9-0.6,3.8-9.2-6.5-7.8
				c-6.5,0.9-12.7,0.4-18.9-2.1C641.8,919.4,636.5,908.3,629.1,909.1L629.1,909.1z"/>
			<path fill-rule="evenodd" clip-rule="evenodd" fill="#EDFFFF" d="M277.4,685.8c-14.4,7.1-67.1-3.5-68.3,8.9c-0.6,7,37.6-9.3,41,0
				c3,8.1-17.1,5.5-17.3,14.6c-0.1,7.6,15.5-10.1,17-2.8c1.7,8-9.3,11.2-14.1,16.5c-9.2,10-35.2,26.5-28,29.4
				c7.5,2.9,27.1-28.8,43.2-35.9c10-4.4,25.2-8.1,31.5,3.1c5.3,9.3-7.2,21.5-12.1,31.3c-5,9.8-21.2,20.8-17.3,26.9
				c4.2,6.6,16-27.2,28.8-36.9c7.5-5.6,12.8-5.8,14.5-2.2c1.8,3.9-2,11.8,0,12.1c3.3,0.6,4-9.2,4.9-13.5c4.2-21.7,25.5-3.8,26.9,5.7
				c1.6,11.7-22.4,23-17.7,26.9c5.1,4.3,16.8-22.3,28.1-27.8c5.9-2.9,13.6,5.2,21.9,3.3c11.2-2.6,14.3-9.9,10.4-8.4
				c-17,6.5-25.6,1-37.9-2.9c-3.4-1.1-2.8-9.7-6.1-11.2c-7.6-3.5-16.5,1.2-23.9-2.7c-7.3-3.9-24.2-12.5-18.4-19.7
				c10.1-12.6,27.1,0.2,41.2-8.7c2.7-1.6,1.8-10.3-7.9-5.1c-6.1,3.2-12.1,4.9-18.6,4.8C291.8,691.1,284.4,682.4,277.4,685.8
				L277.4,685.8z"/>
			<path fill-rule="evenodd" clip-rule="evenodd" fill="#EDFFFF" d="M356,748c-12.7,11.3-65.9,17.5-64.8,29.9
				c0.6,7,34.9-20.8,39.8-12.8c4.4,6.9-15.6,10.7-14.2,19.5c1.2,7.4,13.3-14.6,16.1-8c3.1,7.2-7,13.8-10.8,20.5
				c-7.1,12.6-29.5,36.7-22,37.3c7.8,0.5,21.2-36.5,35.7-48.4c8.9-7.4,23-15.7,31.1-6.8c6.8,7.5-3.2,23.2-6.2,34.2
				c-3,11.1-16.9,26.8-12,31.6c5.3,5.1,10.8-31.5,21.5-44.8c6.3-7.8,11.4-9.7,13.6-6.7c2.4,3.2,0.1,12.1,2.2,11.8
				c3.3-0.5,2.3-10.2,2.3-14.7c0.3-22.4,24.1-11.7,27.2-2.8c3.7,10.8-17.7,29.3-12.5,31.6c5.7,2.6,12.4-26.8,22.4-35.8
				c5.3-4.7,14.1,0.8,21.9-3.7c10.4-6,12.2-14.1,8.6-11.4c-15.4,11.7-24.7,9-37.4,9c-3.5,0-4.4-8.5-7.9-9c-8-1-15.9,6.3-23.8,4.8
				c-7.8-1.5-25.7-4.7-21.4-13.4c7.6-15.4,26.4-8.3,38.5-21.2c2.3-2.4-0.1-10.5-8.6-2.6c-5.3,5-10.9,8.5-17.3,10.5
				C371,748.7,362.2,742.5,356,748L356,748z"/>
			<path fill-rule="evenodd" clip-rule="evenodd" fill="#EDFFFF" d="M649.6,1001.4c-12.8,11.3-65.9,17.5-64.8,29.9
				c0.6,6.9,34.8-20.8,39.8-12.8c4.4,6.9-15.6,10.7-14.2,19.5c1.2,7.5,13.3-14.6,16.1-8c3.1,7.2-7,13.8-10.8,20.5
				c-7.1,12.6-29.5,36.7-22,37.3c7.7,0.5,21.2-36.5,35.6-48.4c9-7.4,23.1-15.7,31.2-6.8c6.8,7.5-3.2,23.1-6.2,34.1
				c-3.1,11.1-16.9,26.9-12,31.6c5.3,5.1,10.8-31.5,21.5-44.8c6.3-7.8,11.4-9.7,13.6-6.7c2.4,3.2,0.1,12.1,2.2,11.8
				c3.3-0.5,2.3-10.2,2.3-14.7c0.3-22.4,24.1-11.7,27.2-2.8c3.7,10.8-17.7,29.3-12.5,31.6c5.8,2.6,12.4-26.9,22.4-35.8
				c5.3-4.7,14.1,0.8,21.9-3.7c10.4-6,12.1-14.1,8.6-11.4c-15.4,11.7-24.7,9-37.4,9c-3.5,0-4.4-8.5-7.9-9c-8-1-15.9,6.3-23.8,4.8
				c-7.8-1.5-25.7-4.6-21.3-13.4c7.6-15.4,26.4-8.3,38.5-21.3c2.3-2.4,0-10.5-8.5-2.6c-5.4,5-10.9,8.6-17.3,10.5
				C664.5,1002.1,655.8,995.9,649.6,1001.4L649.6,1001.4z"/>
			<path fill-rule="evenodd" clip-rule="evenodd" fill="#EDFFFF" d="M738.3,1073.9c-12.8,11.3-65.9,17.5-64.8,29.9
				c0.6,7,34.8-20.8,39.8-12.8c4.4,6.9-15.6,10.7-14.2,19.5c1.2,7.4,16.1-14.9,21.8-14.1c7.3,1-6.6,14-3,15.4
				c5.4,2.1,12-16.4,22.4-14.5c12.8,2.4-5.3,19.8,0.3,21.3c4.8,1.4,7.2-16.2,18.4-15.3c13.2,1,0.5,18.5,1.8,21.3
				c3,6.4,11.7-39.8,68.7-18.9c10.9,4,11.9-5.2-5-5.9c-34.5-1.4-22-15.2-27.9-16c-4.5-0.6-9.6,13.5-16.7,17.5
				c-5.3,3.1-12-4.1-18.4-2.3c-7.7,2.2-18.2-4.7-13.8-13.4c7.6-15.4,26.4-8.3,38.5-21.2c2.3-2.4,0-10.5-8.5-2.6
				c-5.4,5-10.9,8.6-17.3,10.5C753.2,1074.6,744.5,1068.4,738.3,1073.9L738.3,1073.9z"/>
			<path fill-rule="evenodd" clip-rule="evenodd" fill="#EDFFFF" d="M787.2,1171.9c-9.8,8.7-50.8,13.5-49.9,23.1
				c0.5,5.4,26.8-16,30.7-9.9c3.4,5.4-12.1,8.3-11,15c0.9,5.7,12.5-11.4,16.8-10.8c5.6,0.7-5.1,10.8-2.3,11.9
				c4.1,1.6,9.2-12.7,17.3-11.2c9.9,1.9-4.1,15.2,0.2,16.4c3.7,1,5.5-12.5,14.1-11.8c10.2,0.8,0.4,14.2,1.4,16.4
				c2.3,5,9-30.7,52.9-14.6c8.4,3.1,9.2-4-3.8-4.5c-26.6-1-16.9-11.7-21.5-12.3c-3.5-0.5-7.4,10.4-12.8,13.5
				c-4.1,2.3-9.3-3.1-14.2-1.8c-5.9,1.7-14-3.6-10.7-10.3c5.9-11.9,20.3-6.4,29.7-16.4c1.7-1.9-0.1-8.1-6.6-2
				c-4.1,3.8-8.4,6.6-13.3,8.1C798.6,1172.4,791.9,1167.6,787.2,1171.9L787.2,1171.9z"/>
		</g>
		<path fill-rule="evenodd" clip-rule="evenodd" fill="#FFFFFF" d="M136.8,781.1c2.1,0,3.8,1.5,3.8,3.4c0,1.9-1.7,3.4-3.8,3.4
			c-2.1,0-3.8-1.5-3.8-3.4C133,782.6,134.7,781.1,136.8,781.1L136.8,781.1z M315.2,982.9c1,0,1.9,0.7,1.9,1.7c0,0.9-0.9,1.7-1.9,1.7
			c-1,0-1.9-0.7-1.9-1.7C313.3,983.6,314.2,982.9,315.2,982.9L315.2,982.9z M428.5,953.2c1,0,1.9,0.7,1.9,1.7c0,0.9-0.9,1.7-1.9,1.7
			c-1.1,0-1.9-0.7-1.9-1.7C426.5,954,427.4,953.2,428.5,953.2L428.5,953.2z M387.8,585.5c1,0,1.9,0.8,1.9,1.7c0,0.9-0.9,1.7-1.9,1.7
			c-1.1,0-1.9-0.8-1.9-1.7C385.9,586.3,386.7,585.5,387.8,585.5L387.8,585.5z M321.9,569c1,0,1.9,0.8,1.9,1.7c0,0.9-0.8,1.7-1.9,1.7
			c-1.1,0-1.9-0.8-1.9-1.7C319.9,569.8,320.8,569,321.9,569L321.9,569z M299.8,587.7c1.1,0,1.9,0.8,1.9,1.7c0,0.9-0.8,1.7-1.9,1.7
			c-1,0-1.9-0.8-1.9-1.7C297.9,588.5,298.8,587.7,299.8,587.7L299.8,587.7z M150.4,581.1c1.1,0,1.9,0.7,1.9,1.7
			c0,0.9-0.8,1.7-1.9,1.7c-1,0-1.9-0.8-1.9-1.7C148.5,581.9,149.3,581.1,150.4,581.1L150.4,581.1z M239.4,618.5c1,0,1.9,0.7,1.9,1.7
			c0,0.9-0.9,1.7-1.9,1.7c-1,0-1.9-0.7-1.9-1.7C237.5,619.3,238.4,618.5,239.4,618.5L239.4,618.5z M128.4,670.2c1,0,1.9,0.7,1.9,1.7
			c0,0.9-0.9,1.7-1.9,1.7c-1,0-1.9-0.7-1.9-1.7C126.5,670.9,127.4,670.2,128.4,670.2L128.4,670.2z M77.9,746c1,0,1.9,0.7,1.9,1.7
			c0,0.9-0.8,1.7-1.9,1.7c-1.1,0-1.9-0.7-1.9-1.7C75.9,746.7,76.8,746,77.9,746L77.9,746z M337.2,944.9c1.1,0,1.9,0.8,1.9,1.7
			c0,0.9-0.8,1.7-1.9,1.7c-1,0-1.9-0.8-1.9-1.7C335.3,945.7,336.2,944.9,337.2,944.9L337.2,944.9z M381.2,920.2
			c1.1,0,1.9,0.8,1.9,1.7c0,0.9-0.8,1.7-1.9,1.7c-1,0-1.9-0.8-1.9-1.7C379.3,920.9,380.1,920.2,381.2,920.2L381.2,920.2z M148.2,907
			c1.1,0,1.9,0.8,1.9,1.7c0,0.9-0.8,1.7-1.9,1.7c-1,0-1.9-0.7-1.9-1.7C146.3,907.8,147.1,907,148.2,907L148.2,907z M205.4,883.4
			c1,0,1.9,0.8,1.9,1.7c0,0.9-0.9,1.7-1.9,1.7c-1.1,0-1.9-0.8-1.9-1.7C203.4,884.1,204.3,883.4,205.4,883.4L205.4,883.4z
			 M297.1,907.5c2.1,0,3.8,1.5,3.8,3.4c0,1.9-1.7,3.4-3.8,3.4s-3.8-1.5-3.8-3.4C293.3,909,295,907.5,297.1,907.5L297.1,907.5z
			 M207,905.3c2.1,0,3.8,1.5,3.8,3.4c0,1.9-1.7,3.4-3.8,3.4c-2.1,0-3.8-1.5-3.8-3.4C203.2,906.8,204.9,905.3,207,905.3L207,905.3z
			 M340,591c2.1,0,3.8,1.5,3.8,3.4c0,1.9-1.7,3.4-3.8,3.4c-2.1,0-3.8-1.5-3.8-3.4C336.1,592.5,337.9,591,340,591L340,591z
			 M222.4,642.6c2.1,0,3.8,1.5,3.8,3.4c0,1.9-1.7,3.4-3.8,3.4c-2.1,0-3.8-1.5-3.8-3.4C218.5,644.2,220.3,642.6,222.4,642.6
			L222.4,642.6z M329,880c2.1,0,3.8,1.5,3.8,3.4c0,1.9-1.7,3.4-3.8,3.4c-2.1,0-3.8-1.5-3.8-3.4C325.1,881.5,326.9,880,329,880
			L329,880z M217.2,852.3c2.1,0,3.8,1.5,3.8,3.4c0,1.9-1.7,3.4-3.8,3.4c-2.1,0-3.8-1.5-3.8-3.4C213.3,853.8,215,852.3,217.2,852.3
			L217.2,852.3z M240.8,805c2.1,0,3.8,1.5,3.8,3.4c0,1.9-1.7,3.4-3.8,3.4c-2.1,0-3.8-1.5-3.8-3.4C236.9,806.5,238.7,805,240.8,805
			L240.8,805z M147.7,758.1c1,0,1.9,0.8,1.9,1.7c0,0.9-0.9,1.7-1.9,1.7c-1.1,0-1.9-0.8-1.9-1.7C145.7,758.8,146.6,758.1,147.7,758.1
			L147.7,758.1z M101.5,830.1c1,0,1.9,0.8,1.9,1.7c0,0.9-0.9,1.7-1.9,1.7c-1.1,0-1.9-0.8-1.9-1.7
			C99.6,830.8,100.4,830.1,101.5,830.1L101.5,830.1z M183.3,796.5c1.1,0,1.9,0.8,1.9,1.7c0,0.9-0.8,1.7-1.9,1.7
			c-1,0-1.9-0.8-1.9-1.7C181.4,797.3,182.3,796.5,183.3,796.5L183.3,796.5z M164,811.3c1,0,1.9,0.7,1.9,1.7s-0.9,1.7-1.9,1.7
			c-1,0-1.9-0.7-1.9-1.7S162.9,811.3,164,811.3L164,811.3z M180.8,781.1c2.1,0,3.8,1.5,3.8,3.4c0,1.9-1.7,3.4-3.8,3.4
			s-3.8-1.5-3.8-3.4C176.9,782.6,178.6,781.1,180.8,781.1L180.8,781.1z"/>
	</g>
</g>
<g>
	<g>
		<linearGradient id="SVGID_5_" gradientUnits="userSpaceOnUse" x1="700" y1="1400" x2="700" y2="169.6283">
			<stop  offset="0" style="stop-color:#1D74CC"/>
			<stop  offset="1" style="stop-color:#30A9FF"/>
		</linearGradient>
		<path fill-rule="evenodd" clip-rule="evenodd" fill="url(#SVGID_5_)" d="M0,1152.4c112.3-15.6,230.2-24.5,361.6-9.2
			c543.3,63.1,590-646.1,314-850.2c-33.4-24.7-68.4-123.4,80.9-123.4c210.8,0,443.5,212.7,643.5,381.3V1400H0V1152.4z"/>
		<linearGradient id="SVGID_6_" gradientUnits="userSpaceOnUse" x1="700" y1="1400" x2="700" y2="660.8118">
			<stop  offset="0" style="stop-color:#066BB3"/>
			<stop  offset="1" style="stop-color:#066BB3;stop-opacity:0"/>
		</linearGradient>
		<path fill-rule="evenodd" clip-rule="evenodd" fill="url(#SVGID_6_)" d="M0,1215.4c33.3-10.7,65.4-19.1,92.2-21.1
			c154.7-11.5,184.8-57.8,398.4-8c105.6,24.6,206.7-61.6,282.7-163.5c72.8-97.5,116-298.8,199.3-284.1
			c52.9,9.3,124.2,35.6,194.9-58.4c44.3-58.8,107.7,27.9,232.4,96.8v623H0V1215.4z"/>
	</g>
	<g>
		<path opacity="0.5" fill-rule="evenodd" clip-rule="evenodd" fill="#99FFFF" d="M814.7,417.2c65.2,191.6,78.1,407.4,46.1,409.3
			c-13.3,0.8-14.7-48-19.9-155.5c-6.6,78.9,7.2,120.6,4.5,186c-3,73.8-75.8,93.3-115.1,158.6c21-22.7,67.8-54.6,97.2-97.1
			c26-37.5,23.8-81.3,35.4-74.9c20.5,11.3-7.8,125.6-81.7,200c-95.8,96.7-118.3,145.8-343.6,192.2C307.4,1262.7,143.2,1288.2,0,1299
			v26.4c129.6,19.2,277.3,52.3,357,74.6h43.3c-183.3-35.8-273.3-79.9-214.5-97.7c34.9-10.5,130-43.4,285.6-53.3
			c163.1-10.4,201.5-13.4,319.7-195.6c93.8-144.5,224.3-180.2,191.8-105.1C890.6,1161.9,770.2,1358,469.1,1400h19.2
			c225.3-21,300.9-111.6,346.6-163.9c81-92.7,235.9-189.7,237.5-129.6c2,78-183.7,239.1-288.5,293.4h33.7
			c216.7-160.5,249.7-205.8,413.5-582.9c9,11.7,18,23.5,26.9,35.2c-82.7,182.5-138,394.6-354.9,547.7h12.5
			c154.3-93.8,200.2-233.9,239.4-267.3c91-77.7,155.3,74.7-135.6,267.3h15.4c89.6-40.7,195.9-147.1,210.1-260.5
			c11.9-95.4,41.2-132.3,94.7-196.7c68.3,24.2,0.3,137.9-28.8,248c-24.3,91.7-101,138.8-151.4,209.2h31
			c123.5-154.3,141.6-251.4,209.5-346.4V1024c-33.3,63.7-62.7,133.8-66.5,125c-7.4-17.2,74-154.4,29.3-253
			c-64.1,70.9-96.3,164-175,199.1c-60.2,26.8,62.2-181.8,101.9-279.6c-17.9-16-20.5-34.6-38.5-50.6c-75,106.8-75.3,303.2-240.4,323
			c-99.8,12-13.1-110.4-3.8-163.5c19.5-112.2,59-216.2,88.5-324.3c-10.3-7.3-20.5-14.7-30.8-22c-21.5,94.7-5.4,152.7-56.7,264
			c-29.7,64.3-137.8,107.6-107.7,40.9C961.4,747.4,947.1,633,970.5,508c-16.7-20.3-33.4-40.6-50-61
			c36.1,157.2,21.1,429.5-30.3,384.7c-29-25.3,25.5-155.9-53.4-419.7C829.4,413.8,822.1,415.5,814.7,417.2L814.7,417.2z
			 M1400,1168.8c-23.5,76.2-69.4,153.5-137.2,231.2c3.5,0,7.1,0,10.6,0c53.7-61.7,97-129.7,126.6-206.7V1168.8z M0,1262.5
			c146.9-8,306.1-25.6,375.2-73.9c50.5-35.3-50-58.1-91.4-51.8c41.9,2.8,116.5,13.8,57.7,43.3c-109.8,55.2-224.2,71-341.5,76V1262.5
			z"/>
		<path opacity="0.5" fill-rule="evenodd" clip-rule="evenodd" fill="#30D2FF" d="M867.1,492.7c79.7,120.2,73.6,302.9,10.8,398.1
			c-112.3,170-261.3,276.6-469.6,256c213.5,67.2,337-152.7,361.7-59.8c13.3,50.1-77.2,225.3-440.5,184.2
			c-83.6-9.5-245.5,2.1-329.5-11.4v12.3c79,16.2,169,36.3,271.7,61.3c111,27.1-85.3,21.9-271.7,34.4v32.2h44
			c127.5-13.6,219.3-37.1,347.2-41.6c132.9-4.6,339.6-65.7,374.5-28.4c24.3,25.9-17.1,51.4-34.1,70h67.3
			c-30.8-24.7-10.3-49.4,48.1-35.1c63.2,15.6,188.6-62.2,301-112.2c71-31.6,185.5-95.2,252.1-111.5v-16.1
			c-42,17-96.1,46.1-137.6,62.6c-184.8,73.8-398.4,177.6-448.2,153.5c-38.6-18.7-89.3-77-76.9-129.8c19-80.8,198.3-13.6,264.4-160.8
			c76.9-171.2,258.1,101.4,329.8-176.4c-10.7-9.3-20.1-17.8-30.2-26.4c-15.4,161.2-68,80.3-117.6,122.6
			c-22.8,19.4-57.6,4.2-17.4-53.2c14-20,23.1-73.3,29-136.3l-0.3-0.2c-109.3,279.4-124.1,48.7-171.2,5.2
			c-51.2-47.3-7.8-139.7-13.5-205C979.7,523.6,893.4,431.3,867.1,492.7L867.1,492.7z M1400,1295.8c-4.9,5.1-9.9,10.6-15.2,15.8
			c-27.8,27.1-93,48.9-143.4,88.4h76c23.4-37,55.5-65.8,82.7-90.6V1295.8z M0,1176.3c63-32.3,157-44,175.7-40.1
			c-75.5-14.6-127.6,8.1-175.7,33.8V1176.3z M218.1,1298.5c-15.7-7.6,70.7-38.5,152.8-2.4C417.4,1316.5,251.5,1314.7,218.1,1298.5
			L218.1,1298.5z M329.7,1343.2c-62.5-20.4,238.1-58.6,279.1-44.3C675.8,1322.3,367.7,1355.6,329.7,1343.2L329.7,1343.2z
			 M613.8,1281.6c-62.5-20.4,57.3-45.6,98.3-31.3C779.1,1273.6,651.8,1294,613.8,1281.6L613.8,1281.6z M1042.4,874.1
			c-11.8-20.4,17.7-15.4,18.9,7.9C1061.7,889.9,1049.6,886.4,1042.4,874.1L1042.4,874.1z M1100.5,945.3c-30.7,52.8,45.8,40,49-20.5
			C1150.6,904.2,1119.1,913.1,1100.5,945.3L1100.5,945.3z M1039.2,906.7c-8.8,38,1.4,86.9,17.5,73.1c13.6-11.6,28.2,12.9,31-40.8
			C1088.8,918.5,1044,885.8,1039.2,906.7L1039.2,906.7z M977.5,824.6c-3.7,110.2-44.2,200.3-67.9,234.2
			c-40.2,57.4-5.4,72.6,17.4,53.2c52.9-45.1,93.8-39.6,104.8-247.8C1036,784.6,980.3,740.1,977.5,824.6L977.5,824.6z M940.7,749.7
			c-33.6,128.6-104,231-149.5,303.6c-21.1,33.7-32.6,129.8,14,90.1c108.2-92.2,147.2-179.9,160.1-302.3
			C977.6,723,945.7,730.2,940.7,749.7L940.7,749.7z"/>
		<linearGradient id="SVGID_7_" gradientUnits="userSpaceOnUse" x1="954.1766" y1="138.0528" x2="954.1766" y2="1400">
			<stop  offset="0" style="stop-color:#99FFFF"/>
			<stop  offset="1" style="stop-color:#99FFFF;stop-opacity:0"/>
		</linearGradient>
		<path fill-rule="evenodd" clip-rule="evenodd" fill="url(#SVGID_7_)" d="M1216.2,840.4c19.2,8,19.4,60.9,35.6,68.8
			c5.7,2.8,12.6-2.8,18.3,0c8,4,15.8,10.5,21.2,19.5c3,5.1-1.4,14.6,1.9,19.5c10.6,15.7,26.5-3.4,37.5,38.9
			c1.9,7.3,11.5,1.8,17.3,1.3c20.5-1.7,19,29.4,42.3,38.9c6.2,2.5-1.4,18.5,1.9,26c2,4.4,5.4,8.2,7.8,11.7V723.7
			c-16-9.7-29.5-18.8-48.2-30c-15.5-9.2-28.9-24.2-44.2-33.7c-13.3-8.3-28.4-10.4-41.4-19.5c-3.7-2.6-2.9-11.9-6.7-14.3
			c-7.6-4.9-14.3-11.7-19.2-31.1c-1.5-6.2-10.3,0.8-14.4-2.6c-4-3.2-3.9-11.9-7.7-15.6c-6.9-6.6-16-8-23.1-14.2
			c-4.4-3.9-8.1-9.4-10.6-15.6c-3.7-9.3-11-20.3-7.7-29.9c2.7-7.9,12.9-6,19.2-3.9c25.7,8.5,51.2,19.4,75,35
			c43.3,28.5,85.8,58.1,129,88.1v-5.5c-30.9-20.4-61.9-41.2-92.4-63c-34.4-24.5-63-62.2-97.2-87.1c-35-25.5-74.3-39-109.6-63.6
			c-5.1-3.6-5-14.8-9.6-19.5c-30.6-31.5-65.2-55.7-95.2-88.2c-11-11.9,1.7-21.5,12.5-16.9c63.6,27.4,128.3,50.7,189,89.1
			c4.5,2.9-2.6-15.2-7.2-17.7c-64.3-36.4-130.9-64.4-196.2-97.3c-6.9-3.4-13.3-8.2-20.2-11.7c-6-3-12.5-4.1-18.3-7.8
			c-5.9-3.7-10.6-10.1-16.3-14.3c-8.7-6.3-17.4-13.5-26.9-16.9c-10.6-3.7-22.1-0.2-32.7-3.9c-8.6-2.9-16.4-9.4-24-15.6
			c-13.5-10.8-25.2-26-39.4-35c-5.5-3.5-12.4,0.7-18.3-1.3c-6.2-2-11.1-9.1-17.3-10.4c-19.4-4-57.1-21.7-58.7-5.2
			c-1.6,17.5,34.6,6.4,35.1,15.9c0.7,14.1-85.6,3.9-129.9,9.2c-37.9,4.5-88.5,37.4-84.1,48.8c6.1,15.5,46.6-17.1,53.9,5.2
			c6.5,20-25.5,27.6-40.4,36.3c-15.1,8.9-50.3-6.5-48.1,15.6c1.6,16.3,77.6-15.7,84.6,0c3.7,8.3-2.6,24.2,3.8,28.5
			c9.2,6.3,23.7-15.3,30.8-5.2c7.4,10.5-13.5,34.8-23.1,49.3c-7.4,11.1-34.2,14.7-26.9,25.9c9.3,14.3,30.6-15.7,46.2-13
			c7.2,1.3,6.6,20.2,13.5,23.4c9.6,4.5,21.2-20.8,34.6-26c8.4-3.2,12.7-23.5,21.2-20.8c13.3,4.4,3.4,33.1,11.5,44.1
			c7,9.5,22.3,0.2,28.9,10.4c4.7,7.3-8.9,21.7-3.8,28.6c5.9,7.9,17.2-4,25,0c3.4,1.7,3.6,9.4,2.9,14.3c-1,6.8-10.1,12-7.7,18.2
			c2.9,7.3,16-13.4,27.9-13c9.2,0.3,16.9-15.6,26-13c5,1.5-3.1,16.6,0.9,20.8c4.1,4.3,10.6-6.5,15.4-3.9c6.7,3.7,8.6,17.2,15.4,20.8
			c5.1,2.7,6.9-5.2,16.3-3.9c4.8,0.7,4-14.3,8.7-15.6c4.3-1.2,10.7,4.5,10.6,10.4c-0.3,9-10.5,13.2-11.5,22
			c-0.9,7.9-12.5,4.3-11.5,10.4c1.3,8,14.1-1.5,19.2,3.9c4.4,4.8,0.3,17.3,4.8,22c4.5,4.8,11.8-1,17.3,1.3
			c5.4,2.2,13.2,4.3,14.4,11.7c1.6,9.4-3.2,19.6-7.7,27.2c-3.7,6.2-11.7,5.5-15.4,11.7c-4.1,6.8-11.8,19.2-6.8,24.6
			c5.7,6,10.1-12.5,20.2-10.4c11.1,2.2,17.6-23.1,28.9-23.4c8.2-0.2,18.9,11.1,18.3,22c-0.6,9.6-18.1,0-20.2,9.1
			c-3.3,13.8,18.5-1,35.6,15.6c6.3,6.1,14.8-14.1,23.1-1.3c13.3,20.5,54.8,1.9,58.7,20.8c1.5,7.3-10,7.2-15.4,9.1
			c-4.7,1.6-11.9-4.2-14.4,1.3c-4,8.7,11.9,14.4,19.2,18.2c7.2,3.8,16.5-1.6,23.1,3.9c3.3,2.7-2.1,11.2,0,15.6
			c2.4,4.8,7.4,6.4,11.5,7.8c7.8,2.6,17.2-1.9,24,3.9c3.8,3.3,3.8,12.6,1.9,18.2c-2.5,7.2-14.1,7.6-13.5,15.6
			c1,13.3,28.1,6.5,40.4,15.6c3.1,2.3-2.8,11.4,0,14.3c7.6,7.7,19.5,4.9,26.9,12.9c4.1,4.5-0.4,16.6,3.8,20.8
			c8.3,8.2-3.6,12.9-2.9,19.5c1.2,11.4,24.7,3.2,35.6,10.4c3.2,2.1,1.9,9.4,1.9,14.3C1180.7,843.3,1204.3,835.4,1216.2,840.4
			L1216.2,840.4z M1400,1142.1c-12.3,5.6-24.7,9.2-22.3,18.7c2.6,10.1,14.6,8.3,21.1,14.3c0.4,0.3,1.1,0.7,1.1,1V1142.1z
			 M1400,1230.1c-1.2,2.9-2.9,5.7-4,8.5c-5.5,14.3-27.2,11.2-30.8,24.6c-1.7,6.6,5.5,10.6,5.8,19.5c0.4,14.2-9.6,27.9-19.2,33.7
			c-21.8,13.3-47.7,9.8-70.2,20.8c-9.2,4.5-13.3,25-23.1,25c-38.1-0.2-37.4,30.4-99,37.8H1400V1230.1z"/>
	</g>
	<g>
		<g>
			<path fill-rule="evenodd" clip-rule="evenodd" fill="#EDFFFF" d="M763.5,202.8c-45.1,4.8-188.3-82.4-199.1-48
				c-6,19.4,112.2,13.6,116.4,44.1c3.7,26.6-51.8-2.6-57.7,23.3c-5,21.8,50-12.4,50,10.4c0,25-33,22.4-50,32.4
				c-32.1,19-115.8,38.5-97.1,54.5c19.4,16.5,94.2-54,144.3-57.1c31-1.9,76.3,3.8,87.5,42.8c9.4,32.7-33.3,54.3-53.1,77.1
				c-19.9,22.9-72.8,37.1-65.2,59.1c8.1,23.5,61.9-61.2,103.8-75.2c24.6-8.2,39.8-3.1,42.3,9.1c2.8,13.1-12.8,31.8-7.2,35
				c9.1,5.2,16.9-22.3,21.9-33.7c25.1-58,74.8,16.3,72.9,45.4c-2.3,35.5-77.3,42.2-66.5,58.4c12,17.9,61-46.1,96.5-49.9
				c18.7-2,35.5,29.6,60.4,33.1c33.2,4.7,46.6-13.1,34.6-12.9c-52.2,0.5-73.2-24.6-105.8-49.3c-8.9-6.8-2.2-31-10.6-38.9
				c-19.4-18.3-47.6-14.3-66.4-33.7c-18.4-19-61-62.2-40.4-76.5c36.4-25.4,76.8,29.7,122.1,19.5c8.5-1.9,11.3-27.6-19.2-23.3
				c-19.1,2.7-37.3,1.2-55.8-6.2C801.1,233.7,785.4,200.5,763.5,202.8L763.5,202.8z"/>
			<path fill-rule="evenodd" clip-rule="evenodd" fill="#EDFFFF" d="M930.9,486.1c-24.8,2.6-103.7-45.4-109.5-26.4
				c-3.3,10.6,61.7,7.5,64,24.3c2,14.7-28.5-1.4-31.8,12.8c-2.7,12,27.5-6.8,27.5,5.7c0,13.8-18.2,12.4-27.5,17.9
				c-17.7,10.4-63.8,21.2-53.5,30c10.7,9.1,51.9-29.7,79.4-31.4c17.1-1,42,2.1,48.2,23.6c5.1,18-18.3,29.9-29.2,42.4
				c-11,12.6-40.1,20.5-35.9,32.6c4.5,12.9,34.1-33.7,57.2-41.4c13.5-4.5,21.9-1.7,23.3,5c1.5,7.2-7.1,17.5-4,19.3
				c5,2.9,9.3-12.2,12-18.5c13.8-32,41.2,9,40.1,25c-1.3,19.6-42.6,23.2-36.6,32.1c6.6,9.9,33.5-25.4,53.1-27.5
				c10.3-1.1,19.5,16.3,33.2,18.2c18.3,2.6,25.6-7.2,19-7.1c-28.7,0.3-40.3-13.6-58.2-27.2c-4.9-3.7-1.2-17-5.8-21.4
				c-10.7-10.1-26.2-7.9-36.5-18.5c-10.1-10.5-33.6-34.2-22.2-42.1c20.1-14,42.3,16.4,67.2,10.7c4.7-1.1,6.2-15.2-10.6-12.9
				c-10.5,1.5-20.5,0.7-30.7-3.4C951.6,503.1,943,484.9,930.9,486.1L930.9,486.1z"/>
			<path fill-rule="evenodd" clip-rule="evenodd" fill="#EDFFFF" d="M916.7,327.9c-24.8,2.6-103.7-45.4-109.5-26.4
				c-3.3,10.6,61.7,7.5,64,24.3c2,14.7-28.5-1.4-31.8,12.9c-2.7,12,27.5-6.8,27.5,5.7c0,13.7-18.2,12.4-27.5,17.8
				c-17.7,10.5-63.8,21.2-53.4,30c10.6,9.1,51.8-29.7,79.4-31.4c17.1-1,42,2.1,48.2,23.6c5.1,18-18.3,29.9-29.2,42.4
				c-11,12.6-40.1,20.4-35.9,32.5c4.5,12.9,34.1-33.7,57.2-41.4c13.5-4.5,21.9-1.7,23.3,5c1.5,7.2-7.1,17.5-4,19.3
				c5,2.9,9.3-12.2,12-18.6c13.8-31.9,41.2,9,40.1,25c-1.3,19.6-42.6,23.2-36.6,32.2c6.6,9.8,33.5-25.4,53.1-27.5
				c10.3-1.1,19.5,16.3,33.2,18.2c18.3,2.6,25.6-7.2,19-7.1c-28.7,0.3-40.3-13.5-58.2-27.1c-4.9-3.7-1.2-17.1-5.8-21.4
				c-10.7-10.1-26.2-7.9-36.5-18.6c-10.1-10.5-33.6-34.2-22.2-42.1c20.1-14,42.3,16.4,67.2,10.7c4.7-1,6.2-15.2-10.6-12.8
				c-10.5,1.5-20.5,0.6-30.7-3.4C937.4,344.9,928.8,326.7,916.7,327.9L916.7,327.9z"/>
			<path fill-rule="evenodd" clip-rule="evenodd" fill="#EDFFFF" d="M1070.3,481.4c-24.8,2.6-103.7-45.4-109.6-26.4
				c-3.3,10.6,61.7,7.5,64,24.3c2,14.7-28.5-1.4-31.8,12.8c-2.7,12,27.5-6.8,27.5,5.7c0,13.8-18.2,12.4-27.5,17.9
				c-17.7,10.4-63.8,21.2-53.4,30c10.6,9.1,51.8-29.7,79.4-31.4c17.1-1,42,2.1,48.2,23.6c5.1,18-18.3,29.9-29.2,42.4
				c-11,12.6-40.1,20.5-35.9,32.6c4.5,12.9,34.1-33.7,57.2-41.4c13.5-4.5,21.9-1.7,23.3,5c1.5,7.2-7.1,17.5-4,19.3
				c5,2.9,9.3-12.2,12-18.5c13.8-32,41.2,9,40.1,25c-1.3,19.6-42.5,23.2-36.6,32.1c6.6,9.9,33.6-25.4,53.1-27.5
				c10.3-1.1,19.5,16.3,33.2,18.2c18.3,2.6,25.7-7.2,19-7.1c-28.7,0.3-40.3-13.6-58.2-27.2c-4.9-3.7-1.2-17-5.8-21.4
				c-10.7-10.1-26.2-7.9-36.5-18.5c-10.1-10.5-33.6-34.2-22.2-42.1c20.1-14,42.3,16.4,67.2,10.7c4.7-1.1,6.2-15.2-10.6-12.9
				c-10.5,1.5-20.5,0.7-30.7-3.4C1091,498.4,1082.4,480.1,1070.3,481.4L1070.3,481.4z"/>
			<path fill-rule="evenodd" clip-rule="evenodd" fill="#EDFFFF" d="M1122.8,591c-24.8,2.7-103.7-45.4-109.6-26.4
				c-3.3,10.6,61.7,7.5,64,24.3c2,14.7-28.5-1.4-31.8,12.8c-2.7,12,27.5-6.8,27.5,5.7c0,13.7-18.2,12.3-27.5,17.8
				c-17.7,10.4-63.8,21.2-53.4,30c10.6,9.1,51.8-29.7,79.4-31.4c17.1-1,42,2.1,48.2,23.6c5.2,18-18.3,29.9-29.2,42.4
				c-11,12.6-40.1,20.4-35.9,32.5c4.5,12.9,34.1-33.7,57.2-41.4c13.5-4.5,21.9-1.7,23.3,5c1.5,7.2-7.1,17.5-4,19.3
				c5,2.9,9.3-12.2,12-18.5c13.8-32,41.2,9,40.1,25c-1.3,19.6-42.5,23.2-36.6,32.1c6.6,9.9,33.6-25.4,53.1-27.5
				c10.3-1.1,19.5,16.3,33.2,18.2c18.3,2.6,25.7-7.2,19-7.1c-28.7,0.3-40.3-13.6-58.2-27.1c-4.9-3.7-1.2-17.1-5.8-21.5
				c-10.7-10-26.2-7.9-36.5-18.5c-10.1-10.5-33.6-34.2-22.2-42.1c20.1-14,42.3,16.4,67.2,10.7c4.7-1,6.2-15.2-10.6-12.8
				c-10.5,1.5-20.6,0.6-30.7-3.4C1143.4,608,1134.8,589.8,1122.8,591L1122.8,591z"/>
			<path fill-rule="evenodd" clip-rule="evenodd" fill="#EDFFFF" d="M552.1,222.9c-23.4,11.6-108.9-5.7-110.8,14.6
				c-1,11.4,60.9-15.4,66.5,0c4.9,13.4-27.7,9.1-28,24c-0.2,12.5,25.1-16.6,27.6-4.5c2.7,13.2-15,18.5-22.9,27.2
				c-14.9,16.5-57.1,43.7-45.4,48.4c12.1,4.9,43.9-47.6,70.1-59.3c16.2-7.2,40.8-13.4,51.1,5.1c8.6,15.4-11.7,35.5-19.6,51.5
				c-8,16.2-34.4,34.3-28,44.5c6.9,10.8,26-44.9,46.7-60.8c12.1-9.3,20.7-9.7,23.4-3.7c2.9,6.4-3.3,19.4,0.1,20
				c5.4,0.9,6.5-15.2,7.8-22.3c6.9-35.8,41.4-6.4,43.6,9.4c2.7,19.3-36.3,37.9-28.8,44.3c8.3,7.1,27.2-36.7,45.6-45.9
				c9.7-4.8,22.1,8.5,35.6,5.4c18.1-4.2,23.2-16.3,16.9-13.8c-27.6,10.8-41.5,1.7-61.5-4.8c-5.5-1.8-4.6-16-9.9-18.5
				c-12.3-5.8-26.8,2-38.9-4.5c-11.9-6.4-39.2-20.6-29.9-32.4c16.5-20.8,44,0.3,66.9-14.3c4.3-2.7,2.9-16.9-12.8-8.5
				c-9.8,5.2-19.7,8.1-30.2,8C575.4,231.6,563.4,217.2,552.1,222.9L552.1,222.9z"/>
			<path fill-rule="evenodd" clip-rule="evenodd" fill="#EDFFFF" d="M679.7,325.4c-20.7,18.7-106.9,28.9-105.1,49.3
				c0.9,11.5,56.5-34.2,64.6-21.1c7.1,11.5-25.4,17.6-23,32.2c2,12.2,21.5-24.1,26.1-13.2c5,12-11.4,22.8-17.5,33.7
				c-11.7,20.8-47.9,60.6-35.8,61.5c12.6,0.9,34.4-60.2,57.8-79.9c14.5-12.2,37.4-25.9,50.6-11.3c11,12.3-5.2,38.2-10.1,56.3
				c-5,18.2-27.5,44.3-19.5,52.1c8.6,8.3,17.5-51.9,34.8-73.9c10.2-12.9,18.4-15.9,22.1-11c3.9,5.3,0.2,19.9,3.5,19.5
				c5.4-0.8,3.7-16.8,3.7-24.1c0.5-37,39.2-19.3,44.1-4.7c5.9,17.9-28.7,48.4-20.3,52.2c9.3,4.2,20.1-44.3,36.4-59.1
				c8.6-7.8,22.9,1.3,35.6-6.1c16.9-9.8,19.8-23.2,14-18.8c-25,19.2-40.1,14.8-60.6,14.8c-5.6,0-7.2-14.1-12.8-14.8
				c-12.9-1.7-25.7,10.4-38.6,7.9c-12.6-2.4-41.7-7.6-34.7-22c12.4-25.4,42.8-13.6,62.5-35.1c3.7-4-0.1-17.4-13.9-4.2
				c-8.6,8.3-17.7,14.1-28,17.3C703.9,326.6,689.8,316.3,679.7,325.4L679.7,325.4z"/>
			<path fill-rule="evenodd" clip-rule="evenodd" fill="#EDFFFF" d="M1156,743.2c-20.7,18.7-106.9,28.9-105.1,49.3
				c1,11.4,56.6-34.3,64.6-21.1c7.1,11.4-25.4,17.6-23,32.2c2,12.2,21.5-24.1,26.1-13.2c5,12-11.4,22.8-17.5,33.7
				c-11.7,20.8-47.9,60.6-35.7,61.5c12.6,0.9,34.4-60.2,57.8-79.8c14.5-12.2,37.4-25.9,50.6-11.3c11,12.3-5.2,38.2-10.1,56.3
				c-5,18.3-27.5,44.3-19.5,52.1c8.6,8.3,17.5-51.9,34.8-73.9c10.2-12.9,18.5-16,22.1-11c4,5.3,0.2,19.9,3.5,19.4
				c5.4-0.8,3.7-16.8,3.8-24.1c0.5-37,39.1-19.3,44-4.7c6,17.9-28.7,48.4-20.2,52.2c9.3,4.2,20-44.3,36.3-59
				c8.6-7.8,22.9,1.3,35.6-6.1c16.9-9.8,19.8-23.2,14-18.8c-25,19.2-40.1,14.8-60.6,14.8c-5.6,0-7.2-14.1-12.8-14.8
				c-12.9-1.7-25.7,10.4-38.6,7.9c-12.6-2.4-41.7-7.7-34.7-22c12.4-25.4,42.8-13.6,62.5-35.1c3.7-4-0.1-17.4-13.9-4.2
				c-8.6,8.2-17.7,14.1-28,17.3C1180.2,744.4,1166,734.2,1156,743.2L1156,743.2z"/>
			<path fill-rule="evenodd" clip-rule="evenodd" fill="#EDFFFF" d="M1299.9,862.7c-20.7,18.7-106.9,28.9-105.1,49.3
				c1,11.5,56.6-34.2,64.7-21.1c7.1,11.4-25.4,17.6-23,32.2c2,12.2,26.2-24.5,35.5-23.2c11.9,1.6-10.8,23.1-4.8,25.4
				c8.7,3.4,19.5-27.1,36.4-23.9c20.9,4-8.6,32.6,0.5,35.2c7.8,2.2,11.7-26.8,29.8-25.3c21.4,1.7,0.8,30.4,2.9,35.1
				c3.8,8.4,14-37.7,63.4-40.1v-14.1c-3.7-6.2-0.6-12.4-5.4-13.1c-7.4-1-15.6,22.3-27,28.9c-8.6,5-19.6-6.8-29.9-3.8
				c-12.5,3.6-29.4-7.6-22.4-22c12.4-25.4,42.8-13.6,62.5-35.1c3.7-4-0.1-17.4-13.9-4.2c-8.6,8.2-17.7,14.1-28,17.3
				C1324.1,863.9,1310,853.6,1299.9,862.7L1299.9,862.7z"/>
			<path fill-rule="evenodd" clip-rule="evenodd" fill="#EDFFFF" d="M1379.2,1024.3c-16,14.4-82.3,22.3-81,38
				c0.8,8.8,43.6-26.4,49.8-16.3c5.5,8.8-19.6,13.6-17.7,24.8c1.5,9.4,20.2-18.9,27.3-17.9c9.1,1.3-8.3,17.8-3.7,19.6
				c6.7,2.6,15-20.9,28-18.4c16.1,3.1-6.6,25.1,0.3,27.1c5.2,1.5,7.8-14.8,17.7-18.7v-6.3c-7.4-2.1-12.8-8.8-8.9-16.8
				c2.3-4.7,5.2-7.7,8.9-9.9v-6.5C1392.6,1022.2,1385.1,1019,1379.2,1024.3L1379.2,1024.3z"/>
		</g>
		<path fill-rule="evenodd" clip-rule="evenodd" fill="#FFFFFF" d="M379.8,366.8c2.9,0,5.2,2,5.2,4.6c0,2.5-2.3,4.5-5.2,4.5
			c-2.9,0-5.2-2-5.2-4.5C374.7,368.9,377,366.8,379.8,366.8L379.8,366.8z M620.4,638.8c1.4,0,2.6,1,2.6,2.3c0,1.3-1.2,2.3-2.6,2.3
			s-2.6-1-2.6-2.3C617.8,639.8,619,638.8,620.4,638.8L620.4,638.8z M773,598.8c1.4,0,2.6,1,2.6,2.3c0,1.3-1.2,2.3-2.6,2.3
			c-1.4,0-2.6-1-2.6-2.3C770.4,599.8,771.6,598.8,773,598.8L773,598.8z M718.2,103.2c1.4,0,2.6,1,2.6,2.3c0,1.3-1.2,2.3-2.6,2.3
			c-1.4,0-2.6-1-2.6-2.3C715.6,104.2,716.7,103.2,718.2,103.2L718.2,103.2z M629.3,80.9c1.4,0,2.6,1,2.6,2.3c0,1.3-1.2,2.3-2.6,2.3
			s-2.6-1-2.6-2.3C626.7,82,627.9,80.9,629.3,80.9L629.3,80.9z M599.7,106.1c1.4,0,2.6,1,2.6,2.3c0,1.3-1.2,2.3-2.6,2.3
			s-2.6-1-2.6-2.3C597.1,107.2,598.2,106.1,599.7,106.1L599.7,106.1z M398.2,97.3c1.4,0,2.6,1,2.6,2.3c0,1.3-1.2,2.3-2.6,2.3
			c-1.4,0-2.6-1-2.6-2.3C395.6,98.3,396.7,97.3,398.2,97.3L398.2,97.3z M518.2,147.6c1.4,0,2.6,1,2.6,2.3c0,1.3-1.2,2.3-2.6,2.3
			s-2.6-1-2.6-2.3C515.6,148.7,516.7,147.6,518.2,147.6L518.2,147.6z M368.5,217.3c1.4,0,2.6,1,2.6,2.3c0,1.3-1.2,2.3-2.6,2.3
			s-2.6-1-2.6-2.3C366,218.3,367.1,217.3,368.5,217.3L368.5,217.3z M300.4,319.5c1.4,0,2.6,1,2.6,2.3c0,1.3-1.2,2.3-2.6,2.3
			s-2.6-1-2.6-2.3C297.8,320.5,299,319.5,300.4,319.5L300.4,319.5z M650,587.6c1.4,0,2.6,1,2.6,2.3s-1.2,2.3-2.6,2.3
			c-1.4,0-2.6-1-2.6-2.3S648.6,587.6,650,587.6L650,587.6z M709.3,554.3c1.4,0,2.6,1,2.6,2.3c0,1.3-1.2,2.3-2.6,2.3
			c-1.4,0-2.6-1-2.6-2.3C706.7,555.3,707.9,554.3,709.3,554.3L709.3,554.3z M395.2,536.5c1.4,0,2.6,1,2.6,2.3c0,1.3-1.2,2.3-2.6,2.3
			c-1.4,0-2.6-1-2.6-2.3C392.6,537.5,393.8,536.5,395.2,536.5L395.2,536.5z M472.2,504.7c1.4,0,2.6,1,2.6,2.3c0,1.3-1.2,2.3-2.6,2.3
			c-1.4,0-2.6-1-2.6-2.3C469.6,505.7,470.8,504.7,472.2,504.7L472.2,504.7z M595.9,537.2c2.9,0,5.2,2.1,5.2,4.6
			c0,2.5-2.3,4.5-5.2,4.5s-5.2-2-5.2-4.5C590.8,539.3,593.1,537.2,595.9,537.2L595.9,537.2z M474.5,534.2c2.9,0,5.2,2,5.2,4.5
			c0,2.5-2.3,4.6-5.2,4.6s-5.2-2.1-5.2-4.6C469.3,536.3,471.6,534.2,474.5,534.2L474.5,534.2z M653.7,110.5c2.9,0,5.2,2.1,5.2,4.6
			c0,2.5-2.3,4.5-5.2,4.5s-5.2-2-5.2-4.5C648.5,112.6,650.9,110.5,653.7,110.5L653.7,110.5z M495.2,180.2c2.8,0,5.2,2,5.2,4.5
			c0,2.6-2.3,4.6-5.2,4.6c-2.9,0-5.2-2-5.2-4.6C490,182.2,492.4,180.2,495.2,180.2L495.2,180.2z M638.9,500.2c2.9,0,5.2,2,5.2,4.6
			c0,2.5-2.3,4.5-5.2,4.5s-5.2-2-5.2-4.5C633.7,502.2,636,500.2,638.9,500.2L638.9,500.2z M488.2,462.8c2.8,0,5.2,2.1,5.2,4.6
			c0,2.5-2.3,4.5-5.2,4.5c-2.9,0-5.2-2-5.2-4.5C483,464.8,485.3,462.8,488.2,462.8L488.2,462.8z M520,399.1c2.9,0,5.2,2,5.2,4.5
			c0,2.5-2.3,4.6-5.2,4.6c-2.9,0-5.2-2.1-5.2-4.6C514.9,401.1,517.2,399.1,520,399.1L520,399.1z M394.5,335.8c1.4,0,2.6,1,2.6,2.3
			c0,1.3-1.2,2.3-2.6,2.3c-1.4,0-2.6-1-2.6-2.3C391.9,336.8,393,335.8,394.5,335.8L394.5,335.8z M332.3,432.8c1.4,0,2.6,1,2.6,2.3
			c0,1.3-1.2,2.3-2.6,2.3s-2.6-1-2.6-2.3C329.7,433.8,330.8,432.8,332.3,432.8L332.3,432.8z M442.6,387.6c1.4,0,2.6,1,2.6,2.3
			c0,1.3-1.2,2.3-2.6,2.3c-1.4,0-2.6-1-2.6-2.3C440,388.7,441.2,387.6,442.6,387.6L442.6,387.6z M416.5,407.5c1.4,0,2.6,1,2.6,2.3
			c0,1.3-1.2,2.3-2.6,2.3s-2.6-1-2.6-2.3C413.9,408.5,415.1,407.5,416.5,407.5L416.5,407.5z M439.1,366.8c2.9,0,5.2,2,5.2,4.5
			c0,2.6-2.3,4.6-5.2,4.6s-5.2-2-5.2-4.6C433.9,368.9,436.2,366.8,439.1,366.8L439.1,366.8z"/>
	</g>
</g>
<g>
	<g>
		<linearGradient id="SVGID_8_" gradientUnits="userSpaceOnUse" x1="700" y1="1400" x2="700" y2="616.6625">
			<stop  offset="0" style="stop-color:#1D74CC"/>
			<stop  offset="1" style="stop-color:#30A9FF"/>
		</linearGradient>
		<path fill-rule="evenodd" clip-rule="evenodd" fill="url(#SVGID_8_)" d="M0,1255.8c207.4,68.9,382.3-49.7,633.8-19.5
			c334.8,40.2,363.6-411.2,193.5-541.1c-20.6-15.7-42.1-78.5,49.9-78.5c177.9,0,380.8,253.8,522.8,341.9V1400H0V1255.8z"/>
		<linearGradient id="SVGID_9_" gradientUnits="userSpaceOnUse" x1="700" y1="1400" x2="700" y2="929.3082">
			<stop  offset="0" style="stop-color:#066BB3"/>
			<stop  offset="1" style="stop-color:#066BB3;stop-opacity:0"/>
		</linearGradient>
		<path fill-rule="evenodd" clip-rule="evenodd" fill="url(#SVGID_9_)" d="M0,1288c93.8,0.2,173.5,25.8,260.5,33.6
			c57.4,5.1,149.9-48.3,207.3-52.7c95.3-7.3,113.9-36.8,245.5-5.1c65.1,15.7,127.4-39.2,174.3-104c44.8-62,71.5-190.1,122.8-180.8
			c32.6,5.9,76.5,22.7,120.1-37.2c39.3-53.9,102.8,84.2,269.5,104V1400H0V1288z"/>
	</g>
	<g>
		<path opacity="0.5" fill-rule="evenodd" clip-rule="evenodd" fill="#99FFFF" d="M913.1,774.3c40.2,121.9,48.2,259.3,28.4,260.5
			c-8.2,0.5-9.1-30.6-12.2-99c-4.1,50.2,4.4,76.8,2.8,118.4c-1.9,47-46.8,59.4-70.9,100.9c12.9-14.5,41.7-34.8,59.9-61.8
			c16-23.9,14.7-51.8,21.8-47.7c12.6,7.2-4.9,79.9-50.4,127.3c-59,61.5-72.8,92.7-211.7,122.3c-145.5,31-359.4,59.1-440.9,33.9
			c-80.6-25,305.5,6,402.4-63.9c31.1-22.5-30.9-37-56.4-33c25.8,1.8,71.8,8.7,35.6,27.6c-156.5,81.3-328.9,28.5-499,66
			c-40.6,9-81.7-14.3-122.5-21.5c0,5.5,0,11,0,16.5c32.1-4.7,127.9,26.3,236.2,20.9c57.7-2.9,0.5,27.3-168.2,58.1h55.1
			c49-22.2,108.7-30.1,141-50.4c39.4-24.8,275.6,23.3,366.8,50.4h26.7c-113-23.5-168.4-51-132.1-62.3c21.5-6.7,80.1-27.7,176-34
			c100.5-6.6,124.2-8.6,197.1-124.6c57.8-92,138.2-114.6,118.2-66.8c-56.9,136-131.1,260.5-316.7,287.7H712
			c138.9-13.6,185.4-71.2,213.5-104.4c49.9-59,145.4-120.7,146.4-82.4c1.3,49.7-113.2,152.2-177.8,186.8h20.7
			c133.5-102.5,153.9-131.1,254.8-371.1c5.5,7.4,11.1,15,16.6,22.4c-51,116.2-85,251.1-218.7,348.7h7.7
			c95.1-60.5,123.4-148.9,147.5-170.1c56.1-49.4,95.7,47.9-83.6,170.1h9.5c55.2-25.9,120.7-93.7,129.5-165.9
			c7.4-60.8,25.4-84.2,58.4-125.3c42.1,15.4,0.2,87.9-17.8,157.9c-14.9,58.4-62.2,88.8-93.3,133.2h19.1
			c82.9-107.4,88.5-170.3,141.2-236.2c2.7,77.7-29,156-96.6,236.2c2.2,0,4.3,0,6.5,0c57.5-67.9,96.1-148.6,103.1-250.5
			c-2.8-6.3-5.5-12.8-8.3-19.2c-26.8,43.6-54.8,116.9-57.8,109.7c-4.5-10.9,45.6-98.3,18.1-161.1c-39.5,45.1-59.4,104.4-107.9,126.7
			c-37.1,17.1,38.3-115.7,62.8-178c-11.1-10.2-12.6-22-23.7-32.2c-46.2,68-46.4,193-148.1,205.6c-61.5,7.7-8-70.2-2.4-104
			c12-71.4,36.4-137.6,54.5-206.4c-6.3-4.7-12.6-9.4-19-14c-13.2,60.3-3.3,97.2-35,168c-18.3,40.9-84.9,68.5-66.4,26
			c37.7-86.3,28.8-159.1,43.3-238.6c-10.3-12.9-20.5-25.9-30.8-38.8c22.3,100.1,13,273.4-18.7,244.8
			c-17.9-16.1,15.7-99.2-32.9-267.1C922.1,772.1,917.6,773.2,913.1,774.3L913.1,774.3z"/>
		<path opacity="0.5" fill-rule="evenodd" clip-rule="evenodd" fill="#30D2FF" d="M945.4,822.3c49.1,76.5,45.4,192.8,6.6,253.3
			c-69.2,108.3-161,176.1-289.4,163c131.6,42.8,207.7-97.2,222.9-38.1c8.2,31.9-47.5,143.4-271.4,117.2
			c-77.7-9.1-264.6,12.2-232.3-36.3c25.8-38.8,122.3-52.8,137.6-49.6c-88.1-17.6-124.2,50-191.5,54.2
			c-67.5,4.2-115.7-21.3-178.4-8.4c44.9,2.6,175.6,16.2,429.1,80.2c98.8,25-198.1,6.5-299.8,42.3h159.4
			c78.6-8.6,135.1-23.7,213.9-26.6c81.9-2.9,209.3-41.7,230.8-18c14.9,16.5-10.5,32.2-21,44.6h41.5c-19-16-6.3-31.6,29.6-22.4
			c39,9.9,116.2-39.6,185.5-71.4c50-23,135.3-72.7,171.1-73.5c45.1-1,30.2,55.3-25.1,111c-17.1,17.3-57.3,31.7-88.4,56.4h46.8
			c29.7-48.1,81.2-76.6,86.4-99.4c8.3-36.3,27.7-88-8.4-84.1c-23.6,2.6-75.7,33.3-111.9,48.3c-113.9,47-245.5,113-276.2,97.7
			c-23.8-11.9-55-49-47.4-82.6c11.7-51.5,122.2-8.7,162.9-102.4c47.4-108.9,159.1,64.5,203.3-112.3c-6.5-5.9-12.4-11.4-18.6-16.8
			c-9.5,102.6-41.9,51.1-72.5,78c-14,12.4-35.5,2.7-10.7-33.8c8.6-12.7,14.2-46.6,17.8-86.8l-0.2-0.1c-67.4,177.8-76.5,31-105.5,3.3
			c-31.5-30.1-4.8-88.9-8.3-130.5C1014.7,842,961.5,783.2,945.4,822.3L945.4,822.3z M545.4,1335.2c-9.7-4.8,43.6-24.5,94.1-1.5
			C668.2,1346.7,566,1345.5,545.4,1335.2L545.4,1335.2z M614.2,1363.6c-38.5-13,146.7-37.3,172-28.2
			C827.4,1350.3,637.6,1371.5,614.2,1363.6L614.2,1363.6z M789.3,1324.4c-38.5-12.9,35.3-29,60.6-19.9
			C891.1,1319.4,812.7,1332.3,789.3,1324.4L789.3,1324.4z M1053.4,1065c-7.3-12.9,10.9-9.8,11.7,5
			C1065.3,1075.1,1057.8,1072.9,1053.4,1065L1053.4,1065z M1089.2,1110.3c-18.9,33.6,28.2,25.5,30.2-13.1
			C1120,1084.2,1100.7,1089.9,1089.2,1110.3L1089.2,1110.3z M1051.4,1085.8c-5.4,24.2,0.9,55.3,10.8,46.6c8.4-7.4,17.4,8.2,19.1-26
			C1082,1093.3,1054.4,1072.6,1051.4,1085.8L1051.4,1085.8z M1013.4,1033.5c-2.3,70.1-27.2,127.5-41.8,149
			c-24.7,36.5-3.3,46.2,10.7,33.8c32.6-28.7,57.8-25.2,64.6-157.7C1049.4,1008.1,1015.2,979.8,1013.4,1033.5L1013.4,1033.5z
			 M990.7,985.9c-20.7,81.9-64.1,147-92.1,193.2c-13.1,21.5-20.1,82.6,8.6,57.4c66.7-58.7,90.7-114.5,98.7-192.4
			C1013.5,968.9,993.8,973.5,990.7,985.9L990.7,985.9z"/>
		<linearGradient id="SVGID_10_" gradientUnits="userSpaceOnUse" x1="1062.141" y1="596.5867" x2="1062.141" y2="1400">
			<stop  offset="0" style="stop-color:#99FFFF"/>
			<stop  offset="1" style="stop-color:#99FFFF;stop-opacity:0"/>
		</linearGradient>
		<path fill-rule="evenodd" clip-rule="evenodd" fill="url(#SVGID_10_)" d="M1160.5,1043.6c11.8,5.1,11.9,38.8,21.9,43.8
			c3.5,1.7,7.8-1.8,11.3,0c4.9,2.5,9.8,6.6,13.1,12.4c1.9,3.3-0.8,9.3,1.2,12.4c6.5,10,16.3-2.1,23.1,24.7c1.2,4.7,7.1,1.2,10.7,0.8
			c12.7-1.1,11.7,18.7,26.1,24.8c3.8,1.6-0.9,11.8,1.2,16.5c4.2,9.4,13.5,13.7,16.6,23.9c2.3,7.6,1.9,18.3-1.8,24.8
			c-5.7,10-26,10.5-23.7,19.8c1.6,6.4,9,5.3,13,9.1c16.6,15.5,2.7,28.5-1.7,40.5c-3.4,9.1-16.7,7.1-19,15.7
			c-1.1,4.2,3.4,6.8,3.5,12.4c0.2,9-5.9,17.7-11.8,21.5c-13.5,8.4-29.4,6.2-43.3,13.2c-5.7,2.9-8.2,16-14.2,16
			c-23.5-0.1-23.1,19.3-61,24.2c91.5,0,183.1,0,274.5,0c0-74.1,0-147.5,0-221c-11.1-7.4-22.7-12-32.1-22.3c-3.9-4.2-2-14.9-5.9-19
			c-6.3-6.6-15.4-5.8-22.5-10.7c-8.8-6.1-23.4-13-24.9-22.3c-0.8-4.7,6.3-4.3,8.9-7.4c2.2-2.7,3.4-6.8,5.3-9.9
			c4.8-7.6,22.1-4.4,33.2-4.1c12.8,0.3,25.7,3.8,38,5.8c0-2.5,0-5,0-7.4c-11.1-3.6-22.2-5.4-32.7-10.7c-15.5-7.9-30.1-19-45-28.9
			c-8.8-5.8-18.4-9.8-26.1-18.2c-3.7-4-7-10.8-6.5-17.4c0.3-4.3,5.2-5.2,8.3-5.8c5.7-1.1,11.8-2.1,17.2,0.8c11.5,6.3,14-2.4,1.2-8.7
			c-37.9-18.5-48.2-27.7-72.3-42.5c-9.6-5.9-17.8-15.4-27.3-21.5c-8.2-5.2-17.5-6.6-25.5-12.4c-2.3-1.6-1.8-7.5-4.1-9.1
			c-4.7-3.1-8.8-7.5-11.9-19.8c-0.9-4-6.3,0.5-8.9-1.7c-2.4-2.1-2.4-7.6-4.7-9.9c-4.2-4.2-9.9-5.1-14.2-9.1c-2.7-2.5-5-6-6.5-9.9
			c-2.3-5.9-6.8-12.9-4.7-19c1.7-5,7.9-3.8,11.8-2.5c15.9,5.4,31.6,12.4,46.2,22.3c69.5,47.1,136.6,99.1,205.7,148.6
			c0-4.1,0-8.3,0-12.4c-60.5-41.2-123.2-79.5-183.2-123.7c-21.2-15.6-38.8-39.6-59.9-55.5c-21.6-16.2-45.8-24.8-67.5-40.5
			c-3.1-2.3-3.1-9.4-5.9-12.4c-18.9-20-40.2-35.5-58.7-56.1c-6.8-7.6,1.1-13.7,7.7-10.7c39.2,17.5,79.1,32.3,116.5,56.7
			c2.8,1.8-1.6-9.7-4.4-11.3c-39.6-23.1-80.7-41-120.9-61.9c-4.2-2.2-8.2-5.2-12.4-7.4c-3.7-1.9-7.7-2.6-11.3-5
			c-3.6-2.4-6.5-6.5-10.1-9.1c-5.4-4-10.7-8.6-16.6-10.7c-6.5-2.3-13.6-0.2-20.2-2.5c-5.3-1.9-10.1-6-14.8-9.9
			c-8.4-6.9-15.5-16.6-24.3-22.3c-3.4-2.2-7.6,0.4-11.3-0.8c-3.8-1.3-6.8-5.8-10.7-6.6c-11.9-2.5-35.2-13.8-36.2-3.3
			c-1,11.1,21.3,4.1,21.6,10.1c0.4,9-52.7,2.5-80,5.9c-23.4,2.9-54.5,23.8-51.8,31.1c3.7,9.9,28.7-10.8,33.2,3.3
			c4,12.7-15.7,17.6-24.9,23.1c-9.3,5.6-31-4.1-29.6,9.9c1,10.4,47.8-10,52.1,0c2.3,5.3-1.6,15.4,2.4,18.2c5.7,4,14.6-9.7,19-3.3
			c4.5,6.7-8.3,22.2-14.2,31.4c-4.5,7-21,9.3-16.6,16.5c5.7,9.1,18.9-10,28.5-8.3c4.5,0.8,4,12.8,8.3,14.9
			c5.9,2.9,13.1-13.2,21.3-16.5c5.1-2.1,7.8-15,13-13.2c8.2,2.8,2.1,21.1,7.1,28.1c4.3,6.1,13.8,0.1,17.8,6.6
			c2.9,4.7-5.5,13.8-2.3,18.2c3.6,5,10.6-2.6,15.4,0c2.1,1.1,2.2,6,1.8,9.1c-0.6,4.4-6.3,7.7-4.8,11.6c1.8,4.7,9.9-8.5,17.2-8.3
			c5.7,0.2,10.5-9.9,16-8.3c3.1,0.9-1.9,10.5,0.6,13.2c2.5,2.7,6.5-4.2,9.4-2.4c4.2,2.3,5.4,10.9,9.5,13.2c3.2,1.7,4.2-3.3,10.1-2.5
			c2.9,0.4,2.4-9.1,5.4-9.9c2.6-0.7,6.6,2.9,6.5,6.6c-0.2,5.7-6.5,8.4-7.1,14c-0.6,5-7.7,2.7-7.1,6.6c0.8,5.1,8.7-1,11.8,2.5
			c2.7,3,0.2,11,3,14c2.8,3,7.2-0.6,10.7,0.8c3.3,1.4,8.1,2.8,8.9,7.5c1,6-2,12.5-4.8,17.3c-2.3,4-7.2,3.5-9.5,7.5
			c-2.5,4.3-7.3,12.2-4.1,15.7c3.5,3.8,6.2-7.9,12.4-6.6c6.9,1.4,10.9-14.7,17.8-14.9c5-0.1,11.7,7.1,11.3,14
			c-0.3,6.1-11.1,0-12.5,5.8c-2,8.8,11.4-0.7,21.9,9.9c3.8,3.8,9.1-9,14.2-0.8c8.2,13.1,33.8,1.2,36.2,13.2c0.9,4.6-6.1,4.6-9.5,5.8
			c-2.9,1-7.3-2.7-8.9,0.8c-2.4,5.6,7.4,9.2,11.9,11.6c4.4,2.4,10.2-1,14.2,2.5c2,1.7-1.3,7.1,0,9.9c1.5,3.1,4.5,4.1,7.1,4.9
			c4.8,1.6,10.6-1.2,14.8,2.5c2.4,2.1,2.3,8,1.2,11.5c-1.5,4.6-8.7,4.9-8.3,9.9c0.6,8.4,17.3,4.1,24.9,9.9c1.9,1.4-1.7,7.2,0,9.1
			c4.7,4.9,12,3.1,16.6,8.3c2.5,2.9-0.2,10.5,2.4,13.2c5.1,5.2-2.2,8.2-1.8,12.4c0.7,7.3,15.2,2,21.9,6.6c2,1.4,1.2,6,1.2,9.1
			C1138.6,1045.5,1153.1,1040.4,1160.5,1043.6L1160.5,1043.6z"/>
	</g>
	<g>
		<g>
			<path fill-rule="evenodd" clip-rule="evenodd" fill="#EDFFFF" d="M881.5,637.8c-27.8,3-116.1-52.5-122.7-30.6
				c-3.7,12.3,69.1,8.6,71.7,28.1c2.2,16.9-31.9-1.6-35.6,14.8c-3.1,13.9,30.8-7.9,30.8,6.6c0,15.9-20.4,14.3-30.8,20.6
				c-19.8,12.1-71.4,24.5-59.9,34.7c11.9,10.5,58.1-34.4,88.9-36.3c19.1-1.2,47,2.4,53.9,27.3c5.8,20.8-20.5,34.5-32.7,49
				c-12.2,14.6-44.8,23.7-40.1,37.7c5,14.9,38.1-39,64-47.9c15.2-5.2,24.5-2,26.1,5.8c1.7,8.4-7.9,20.2-4.4,22.3
				c5.6,3.3,10.4-14.1,13.5-21.5c15.5-36.9,46.1,10.4,44.9,28.9c-1.4,22.6-47.6,26.9-40.9,37.2c7.4,11.4,37.6-29.4,59.5-31.8
				c11.5-1.3,21.8,18.8,37.2,21c20.5,3,28.7-8.3,21.3-8.3c-32.2,0.3-45.1-15.7-65.2-31.4c-5.5-4.3-1.3-19.7-6.5-24.8
				c-11.9-11.7-29.3-9.1-40.9-21.5c-11.3-12.1-37.6-39.5-24.9-48.7c22.4-16.2,47.3,19,75.3,12.4c5.2-1.2,7-17.6-11.9-14.9
				c-11.8,1.7-23,0.7-34.4-3.9C904.6,657.5,895,636.3,881.5,637.8L881.5,637.8z"/>
			<path fill-rule="evenodd" clip-rule="evenodd" fill="#EDFFFF" d="M984.7,818.1c-15.3,1.7-63.9-28.9-67.5-16.8
				c-2,6.8,38.1,4.8,39.5,15.5c1.3,9.3-17.6-0.9-19.6,8.2c-1.7,7.6,17-4.3,17,3.6c0,8.7-11.2,7.8-17,11.3
				c-10.9,6.6-39.3,13.5-32.9,19.1c6.5,5.8,32-18.9,48.9-20c10.5-0.7,25.9,1.3,29.7,15c3.2,11.4-11.3,19-18,27
				c-6.8,8-24.7,13-22.1,20.8c2.8,8.2,21-21.5,35.2-26.4c8.4-2.9,13.5-1.1,14.3,3.2c0.9,4.6-4.3,11.1-2.4,12.3
				c3.1,1.9,5.7-7.8,7.4-11.8c8.5-20.3,25.4,5.7,24.7,15.9c-0.8,12.5-26.2,14.8-22.5,20.4c4.1,6.3,20.7-16.1,32.8-17.5
				c6.3-0.7,12,10.4,20.5,11.6c11.3,1.6,15.8-4.6,11.7-4.5c-17.7,0.2-24.8-8.6-35.9-17.3c-3-2.4-0.7-10.8-3.6-13.6
				c-6.5-6.4-16.1-5-22.5-11.8c-6.2-6.7-20.7-21.8-13.7-26.8c12.4-8.9,26,10.4,41.4,6.8c2.9-0.7,3.8-9.7-6.5-8.2
				c-6.5,0.9-12.7,0.4-18.9-2.1C997.4,828.9,992.1,817.3,984.7,818.1L984.7,818.1z"/>
			<path fill-rule="evenodd" clip-rule="evenodd" fill="#EDFFFF" d="M975.9,717.4c-15.3,1.7-63.9-28.9-67.5-16.8
				c-2.1,6.8,38,4.8,39.4,15.5c1.3,9.3-17.6-0.9-19.6,8.2c-1.7,7.6,17-4.3,17,3.6c0,8.7-11.2,7.9-17,11.4
				c-10.9,6.6-39.3,13.5-32.9,19.1c6.5,5.8,32-18.9,48.9-20c10.5-0.7,25.9,1.3,29.7,15c3.2,11.4-11.3,19-18,27
				c-6.8,8-24.7,13-22.1,20.8c2.7,8.2,21-21.5,35.2-26.4c8.4-2.9,13.5-1.1,14.3,3.2c0.9,4.6-4.3,11.1-2.4,12.3
				c3.1,1.8,5.7-7.8,7.4-11.8c8.5-20.3,25.3,5.7,24.7,15.9c-0.8,12.4-26.2,14.8-22.5,20.4c4.1,6.3,20.6-16.2,32.7-17.5
				c6.3-0.7,12,10.4,20.5,11.6c11.3,1.6,15.8-4.6,11.7-4.5c-17.7,0.2-24.8-8.6-35.9-17.3c-3-2.4-0.7-10.8-3.6-13.6
				c-6.6-6.4-16.2-5-22.5-11.8c-6.2-6.7-20.7-21.8-13.7-26.8c12.4-8.9,26.1,10.4,41.4,6.8c2.9-0.7,3.8-9.7-6.5-8.2
				c-6.5,0.9-12.7,0.4-18.9-2.1C988.7,728.3,983.4,716.6,975.9,717.4L975.9,717.4z"/>
			<path fill-rule="evenodd" clip-rule="evenodd" fill="#EDFFFF" d="M1070.6,815.1c-15.3,1.7-63.9-28.9-67.5-16.8
				c-2,6.8,38,4.8,39.5,15.4c1.2,9.3-17.6-0.9-19.6,8.2c-1.7,7.6,16.9-4.3,16.9,3.6c0,8.7-11.2,7.9-16.9,11.4
				c-10.9,6.6-39.3,13.5-33,19.1c6.6,5.8,32-18.9,48.9-20c10.5-0.7,25.9,1.3,29.7,15c3.2,11.5-11.3,19-18,27
				c-6.8,8-24.7,13-22.1,20.7c2.7,8.2,21-21.5,35.2-26.4c8.3-2.9,13.5-1.1,14.3,3.2c0.9,4.6-4.4,11.1-2.4,12.2
				c3.1,1.9,5.7-7.8,7.4-11.8c8.5-20.3,25.4,5.7,24.7,15.9c-0.8,12.5-26.2,14.8-22.5,20.5c4.1,6.3,20.7-16.2,32.7-17.5
				c6.4-0.7,12,10.4,20.5,11.6c11.3,1.6,15.8-4.6,11.8-4.5c-17.7,0.2-24.8-8.6-35.9-17.3c-3-2.3-0.8-10.8-3.6-13.6
				c-6.6-6.4-16.1-5-22.5-11.8c-6.3-6.6-20.7-21.8-13.7-26.8c12.4-8.9,26.1,10.4,41.4,6.8c2.9-0.7,3.8-9.7-6.5-8.2
				c-6.5,0.9-12.7,0.4-18.9-2.2C1083.4,825.9,1078,814.3,1070.6,815.1L1070.6,815.1z"/>
			<path fill-rule="evenodd" clip-rule="evenodd" fill="#EDFFFF" d="M1102.9,884.9c-15.3,1.6-63.9-28.9-67.5-16.8
				c-2,6.8,38,4.8,39.5,15.5c1.3,9.3-17.6-0.9-19.6,8.2c-1.7,7.6,16.9-4.3,16.9,3.6c0,8.7-11.2,7.9-16.9,11.4
				c-10.9,6.6-39.3,13.5-33,19.1c6.6,5.8,32-18.9,49-20c10.5-0.7,25.9,1.3,29.7,15c3.2,11.4-11.3,19-18,27c-6.8,8-24.7,13-22.1,20.7
				c2.8,8.2,21-21.5,35.2-26.4c8.4-2.9,13.5-1.1,14.3,3.2c0.9,4.6-4.3,11.1-2.4,12.3c3.1,1.8,5.7-7.8,7.4-11.8
				c8.5-20.3,25.4,5.7,24.7,15.9c-0.8,12.4-26.2,14.8-22.5,20.4c4.1,6.3,20.7-16.2,32.8-17.5c6.3-0.7,12,10.4,20.4,11.6
				c11.3,1.6,15.8-4.6,11.8-4.5c-17.7,0.2-24.8-8.6-35.9-17.3c-3-2.4-0.7-10.9-3.6-13.6c-6.6-6.4-16.1-5-22.5-11.8
				c-6.3-6.6-20.7-21.8-13.7-26.8c12.3-8.9,26,10.4,41.4,6.8c2.9-0.7,3.8-9.7-6.5-8.2c-6.5,0.9-12.7,0.4-18.9-2.2
				C1115.7,895.7,1110.3,884.1,1102.9,884.9L1102.9,884.9z"/>
			<path fill-rule="evenodd" clip-rule="evenodd" fill="#EDFFFF" d="M751.2,650.5c-14.4,7.4-67.1-3.6-68.3,9.3
				c-0.6,7.3,37.6-9.8,41,0c3,8.5-17.1,5.8-17.3,15.3c-0.1,8,15.5-10.6,17-2.9c1.7,8.4-9.3,11.8-14.1,17.4
				c-9.2,10.5-35.2,27.8-28,30.8c7.5,3.1,27.1-30.3,43.2-37.7c10-4.6,25.2-8.5,31.5,3.2c5.3,9.8-7.2,22.6-12.1,32.8
				c-4.9,10.3-21.2,21.9-17.3,28.3c4.3,6.9,16.1-28.6,28.8-38.7c7.5-5.9,12.8-6.2,14.4-2.4c1.8,4.1-2,12.4,0,12.7
				c3.3,0.6,4-9.7,4.9-14.2c4.2-22.8,25.5-4.1,26.9,6c1.6,12.3-22.4,24.1-17.7,28.2c5.1,4.5,16.8-23.4,28.1-29.2
				c5.9-3.1,13.6,5.4,21.9,3.4c11.2-2.7,14.3-10.4,10.4-8.8c-17,6.9-25.6,1.1-37.9-3.1c-3.4-1.1-2.8-10.1-6.1-11.8
				c-7.6-3.7-16.5,1.3-24-2.9c-7.3-4.1-24.1-13.2-18.4-20.6c10.1-13.2,27.1,0.2,41.2-9.1c2.6-1.7,1.8-10.8-7.9-5.4
				c-6.1,3.4-12.1,5.2-18.6,5.1C765.6,656.1,758.2,647,751.2,650.5L751.2,650.5z"/>
			<path fill-rule="evenodd" clip-rule="evenodd" fill="#EDFFFF" d="M829.9,715.8c-12.8,11.9-65.9,18.4-64.8,31.4
				c0.6,7.3,34.8-21.8,39.8-13.4c4.4,7.3-15.6,11.2-14.2,20.5c1.2,7.8,13.3-15.4,16.1-8.4c3.1,7.6-7,14.5-10.8,21.5
				c-7.1,13.2-29.5,38.6-22,39.1c7.7,0.6,21.2-38.3,35.6-50.8c9-7.8,23.1-16.5,31.2-7.2c6.8,7.8-3.2,24.3-6.2,35.8
				c-3.1,11.6-16.9,28.2-12,33.2c5.3,5.3,10.8-33,21.5-47c6.3-8.2,11.4-10.1,13.6-7c2.4,3.4,0.1,12.7,2.2,12.4
				c3.3-0.5,2.3-10.7,2.3-15.4c0.3-23.5,24.1-12.3,27.2-3c3.7,11.4-17.7,30.8-12.5,33.2c5.8,2.7,12.4-28.2,22.4-37.6
				c5.3-4.9,14.1,0.8,21.9-3.9c10.4-6.2,12.1-14.8,8.6-12c-15.4,12.2-24.7,9.4-37.4,9.4c-3.5,0-4.4-9-7.9-9.4
				c-8-1.1-15.9,6.6-23.8,5c-7.8-1.5-25.7-4.9-21.3-14c7.6-16.2,26.4-8.7,38.5-22.3c2.3-2.6,0-11.1-8.5-2.7c-5.4,5.2-10.9,9-17.3,11
				C844.8,716.6,836.1,710.1,829.9,715.8L829.9,715.8z"/>
			<path fill-rule="evenodd" clip-rule="evenodd" fill="#EDFFFF" d="M1123.4,981.8c-12.8,11.9-65.9,18.4-64.8,31.4
				c0.6,7.3,34.9-21.8,39.9-13.4c4.4,7.3-15.6,11.2-14.2,20.5c1.2,7.8,13.3-15.3,16.1-8.4c3,7.6-7,14.5-10.8,21.5
				c-7.2,13.2-29.5,38.6-22,39.1c7.7,0.6,21.2-38.3,35.6-50.8c8.9-7.8,23-16.5,31.1-7.2c6.8,7.8-3.1,24.3-6.2,35.8
				c-3.1,11.6-17,28.2-12,33.1c5.3,5.3,10.8-33,21.5-47c6.3-8.2,11.4-10.1,13.6-7c2.4,3.4,0.1,12.7,2.2,12.4
				c3.3-0.5,2.2-10.7,2.3-15.4c0.3-23.5,24.1-12.3,27.1-3c3.7,11.4-17.6,30.8-12.5,33.2c5.7,2.7,12.4-28.2,22.4-37.6
				c5.3-4.9,14.1,0.8,21.9-3.8c10.4-6.3,12.2-14.8,8.6-12c-15.4,12.2-24.7,9.4-37.3,9.4c-3.5,0-4.5-9-7.9-9.4
				c-8-1.1-15.9,6.6-23.8,5c-7.8-1.5-25.7-4.9-21.3-14c7.6-16.2,26.4-8.7,38.5-22.3c2.3-2.6,0-11-8.5-2.7c-5.4,5.2-10.9,9-17.3,11
				C1138.3,982.5,1129.6,976,1123.4,981.8L1123.4,981.8z"/>
			<path fill-rule="evenodd" clip-rule="evenodd" fill="#EDFFFF" d="M1212.1,1057.8c-12.8,11.9-65.9,18.4-64.8,31.4
				c0.6,7.3,34.9-21.8,39.9-13.4c4.4,7.3-15.6,11.2-14.2,20.5c1.2,7.8,16.2-15.6,21.9-14.8c7.3,1-6.6,14.7-3,16.2
				c5.4,2.2,12-17.3,22.4-15.2c12.8,2.5-5.3,20.7,0.2,22.4c4.8,1.4,7.2-17,18.4-16.1c13.2,1.1,0.5,19.4,1.8,22.4
				c3,6.8,11.7-41.7,68.6-19.9c11,4.2,11.9-5.5-5-6.2c-34.5-1.4-22-15.9-28-16.7c-4.5-0.6-9.6,14.2-16.6,18.4
				c-5.3,3.2-12-4.3-18.4-2.4c-7.7,2.3-18.1-4.9-13.8-14c7.6-16.2,26.4-8.7,38.5-22.3c2.3-2.6,0-11.1-8.5-2.7
				c-5.4,5.2-10.9,9-17.3,11C1227,1058.6,1218.3,1052,1212.1,1057.8L1212.1,1057.8z"/>
			<path fill-rule="evenodd" clip-rule="evenodd" fill="#EDFFFF" d="M1261,1160.7c-9.8,9.2-50.7,14.2-49.9,24.2
				c0.5,5.6,26.8-16.8,30.7-10.4c3.4,5.6-12,8.6-10.9,15.8c0.9,6,12.4-12,16.8-11.4c5.6,0.8-5.1,11.3-2.3,12.5
				c4.1,1.7,9.2-13.3,17.3-11.8c9.9,2-4.1,16,0.2,17.3c3.7,1.1,5.6-13.1,14.2-12.4c10.1,0.8,0.3,14.9,1.4,17.2
				c2.3,5.2,9-32.2,52.9-15.3c8.4,3.2,9.1-4.2-3.8-4.8c-26.6-1.1-17-12.2-21.5-12.9c-3.5-0.5-7.4,10.9-12.8,14.2
				c-4.1,2.4-9.3-3.3-14.2-1.9c-5.9,1.7-14-3.7-10.6-10.8c5.9-12.5,20.3-6.7,29.7-17.2c1.7-2,0-8.5-6.6-2.1
				c-4.1,4.1-8.4,6.9-13.3,8.5C1272.5,1161.2,1265.8,1156.2,1261,1160.7L1261,1160.7z"/>
		</g>
		<path fill-rule="evenodd" clip-rule="evenodd" fill="#FFFFFF" d="M613.7,778.6c2.1,0,3.8,1.5,3.8,3.4c0,1.9-1.7,3.4-3.8,3.4
			c-2.1,0-3.8-1.5-3.8-3.4C609.9,780.1,611.6,778.6,613.7,778.6L613.7,778.6z M792.2,980.4c1,0,1.9,0.7,1.9,1.7
			c0,0.9-0.9,1.7-1.9,1.7s-1.9-0.7-1.9-1.7C790.3,981.1,791.2,980.4,792.2,980.4L792.2,980.4z M905.4,950.7c1,0,1.9,0.7,1.9,1.7
			s-0.9,1.7-1.9,1.7c-1.1,0-1.9-0.7-1.9-1.7S904.3,950.7,905.4,950.7L905.4,950.7z M864.7,583c1,0,1.9,0.8,1.9,1.7
			c0,0.9-0.9,1.7-1.9,1.7c-1.1,0-1.9-0.8-1.9-1.7C862.8,583.8,863.7,583,864.7,583L864.7,583z M798.8,566.5c1.1,0,1.9,0.8,1.9,1.7
			c0,0.9-0.8,1.7-1.9,1.7c-1,0-1.9-0.8-1.9-1.7C796.9,567.3,797.7,566.5,798.8,566.5L798.8,566.5z M776.8,585.2
			c1.1,0,1.9,0.8,1.9,1.7c0,0.9-0.8,1.7-1.9,1.7c-1,0-1.9-0.8-1.9-1.7C774.9,586,775.8,585.2,776.8,585.2L776.8,585.2z M627.3,578.6
			c1,0,1.9,0.7,1.9,1.7c0,0.9-0.9,1.7-1.9,1.7s-1.9-0.7-1.9-1.7C625.4,579.4,626.3,578.6,627.3,578.6L627.3,578.6z M716.4,616
			c1,0,1.9,0.8,1.9,1.7c0,0.9-0.9,1.7-1.9,1.7c-1,0-1.9-0.8-1.9-1.7C714.4,616.7,715.3,616,716.4,616L716.4,616z M605.4,667.6
			c1,0,1.9,0.8,1.9,1.7c0,0.9-0.9,1.7-1.9,1.7s-1.9-0.7-1.9-1.7C603.4,668.4,604.3,667.6,605.4,667.6L605.4,667.6z M554.8,743.5
			c1.1,0,1.9,0.8,1.9,1.7c0,0.9-0.8,1.7-1.9,1.7c-1,0-1.9-0.8-1.9-1.7C552.9,744.2,553.7,743.5,554.8,743.5L554.8,743.5z
			 M814.2,942.4c1,0,1.9,0.7,1.9,1.7c0,0.9-0.9,1.7-1.9,1.7c-1,0-1.9-0.8-1.9-1.7C812.3,943.1,813.1,942.4,814.2,942.4L814.2,942.4z
			 M858.1,917.7c1.1,0,1.9,0.8,1.9,1.7c0,0.9-0.8,1.7-1.9,1.7c-1,0-1.9-0.8-1.9-1.7C856.2,918.4,857.1,917.7,858.1,917.7
			L858.1,917.7z M625.1,904.5c1.1,0,1.9,0.8,1.9,1.7c0,0.9-0.8,1.7-1.9,1.7c-1,0-1.9-0.8-1.9-1.7
			C623.2,905.2,624.1,904.5,625.1,904.5L625.1,904.5z M682.3,880.8c1.1,0,1.9,0.8,1.9,1.7c0,0.9-0.8,1.7-1.9,1.7
			c-1,0-1.9-0.8-1.9-1.7C680.4,881.6,681.2,880.8,682.3,880.8L682.3,880.8z M774.1,905c2.1,0,3.8,1.5,3.8,3.4c0,1.9-1.7,3.4-3.8,3.4
			c-2.1,0-3.8-1.5-3.8-3.4C770.2,906.5,771.9,905,774.1,905L774.1,905z M683.9,902.8c2.1,0,3.8,1.5,3.8,3.4c0,1.9-1.7,3.4-3.8,3.4
			c-2.1,0-3.8-1.5-3.8-3.4C680.1,904.3,681.8,902.8,683.9,902.8L683.9,902.8z M816.9,588.5c2.1,0,3.8,1.5,3.8,3.4
			c0,1.9-1.7,3.4-3.8,3.4c-2.1,0-3.8-1.5-3.8-3.4C813.1,590,814.8,588.5,816.9,588.5L816.9,588.5z M699.3,640.1
			c2.1,0,3.8,1.5,3.8,3.4c0,1.9-1.7,3.4-3.8,3.4c-2.1,0-3.8-1.5-3.8-3.4C695.5,641.6,697.2,640.1,699.3,640.1L699.3,640.1z
			 M805.9,877.5c2.1,0,3.8,1.5,3.8,3.4c0,1.9-1.7,3.4-3.8,3.4c-2.1,0-3.8-1.5-3.8-3.4C802.1,879,803.8,877.5,805.9,877.5
			L805.9,877.5z M694.1,849.8c2.1,0,3.8,1.5,3.8,3.4c0,1.9-1.7,3.4-3.8,3.4c-2.1,0-3.8-1.5-3.8-3.4
			C690.3,851.3,692,849.8,694.1,849.8L694.1,849.8z M717.7,802.5c2.1,0,3.8,1.5,3.8,3.4c0,1.9-1.7,3.4-3.8,3.4s-3.8-1.5-3.8-3.4
			C713.9,804,715.6,802.5,717.7,802.5L717.7,802.5z M624.6,755.6c1,0,1.9,0.8,1.9,1.7c0,0.9-0.8,1.7-1.9,1.7c-1.1,0-1.9-0.8-1.9-1.7
			C622.7,756.3,623.5,755.6,624.6,755.6L624.6,755.6z M578.4,827.5c1,0,1.9,0.8,1.9,1.7c0,0.9-0.8,1.7-1.9,1.7
			c-1.1,0-1.9-0.8-1.9-1.7C576.5,828.3,577.4,827.5,578.4,827.5L578.4,827.5z M660.3,794c1.1,0,1.9,0.8,1.9,1.7
			c0,0.9-0.8,1.7-1.9,1.7c-1,0-1.9-0.8-1.9-1.7C658.4,794.8,659.3,794,660.3,794L660.3,794z M640.9,808.8c1,0,1.9,0.8,1.9,1.7
			c0,0.9-0.9,1.7-1.9,1.7c-1.1,0-1.9-0.8-1.9-1.7C639,809.5,639.9,808.8,640.9,808.8L640.9,808.8z M657.7,778.6
			c2.1,0,3.8,1.5,3.8,3.4c0,1.9-1.7,3.4-3.8,3.4c-2.1,0-3.8-1.5-3.8-3.4C653.9,780.1,655.6,778.6,657.7,778.6L657.7,778.6z"/>
	</g>
</g>
</svg>
